# Blender v2.79 (sub 0) OBJ File: 'arena.blend'
# www.blender.org
mtllib arena.mtl
o Plane_Plane.001
v -3.106465 0.000000 1.899381
v 2.928952 0.000000 1.899381
v -3.106465 0.000000 -1.963286
v 2.928952 0.000000 -1.963286
v 2.023640 0.000000 3.106465
v 2.023640 0.000000 -2.928952
v -2.080444 0.000000 3.106465
v -2.080444 0.000000 -2.928952
v -3.106465 0.000000 1.899381
v -2.080444 0.000000 3.106465
v -3.106465 4.206791 1.899381
v 2.928952 4.206791 1.899381
v -3.106465 4.206791 -1.963286
v 2.928952 4.206791 -1.963286
v 2.023640 4.206791 3.106465
v 2.023640 4.206791 -2.928952
v -2.080444 4.206791 3.106465
v -2.080444 4.206791 -2.928952
v -3.106465 4.206791 1.899381
v -2.080444 4.206791 3.106465
v 2.023640 1.893056 3.106465
v -2.080444 1.893056 3.106465
v 2.928952 1.893056 -1.963286
v 2.928952 1.893056 1.899381
v 2.023640 1.893056 -2.928952
v -2.080444 1.893056 -2.928952
v -3.106465 1.893056 -1.963286
v -3.106465 1.893056 1.899381
v 1.360618 1.893056 2.126345
v -1.436640 1.893056 2.126345
v 1.977660 1.893056 -1.329091
v 1.977660 1.893056 1.303622
v 1.360618 1.893056 -1.987269
v -1.436640 1.893056 -1.987269
v -2.135954 1.893056 -1.329091
v -2.135954 1.893056 1.303622
v -3.106465 1.893056 0.943871
v -3.106465 1.893056 -0.863778
v -3.106465 0.000000 0.943871
v -3.106465 0.000000 -0.863777
vt 0.981836 0.363726
vt 0.826836 0.250843
vt 0.808763 0.299690
vt 0.745134 0.276148
vt 0.600315 0.167032
vt 0.582242 0.215879
vt 0.544494 0.146379
vt 0.526421 0.195226
vt 0.071325 0.406703
vt 0.000091 0.501400
vt 0.000091 0.406703
vt 0.353349 0.131191
vt 0.247564 0.092051
vt 0.171333 0.063847
vt 0.149112 0.000091
vt 0.293931 0.109207
vt 0.371422 0.082344
vt 0.049530 0.406521
vt 0.112885 0.363908
vt 0.112885 0.406521
vt 0.000091 0.363908
vt 0.049530 0.363908
vt 0.530626 0.406521
vt 0.598471 0.363908
vt 0.598471 0.406521
vt 0.297424 0.363908
vt 0.297424 0.406521
vt 0.356942 0.406521
vt 0.356942 0.363908
vt 0.783010 0.406521
vt 0.131039 0.048938
vt 0.095414 0.115815
vt 0.141020 0.099161
vt 0.036869 0.303457
vt 0.187860 0.313713
vt 0.199761 0.363725
vt 0.318645 0.167542
vt 0.225243 0.297961
vt 0.254610 0.340615
vt 0.064126 0.073372
vt 0.051768 0.233778
vt 0.000091 0.246445
vt 0.252043 0.140239
vt 0.268888 0.179999
vt 0.114472 0.449317
vt 0.071507 0.406703
vt 0.114472 0.406703
vt 0.999909 0.314878
vt 0.763207 0.227301
vt 0.071325 0.501400
vt 0.312004 0.060360
vt 0.000091 0.406521
vt 0.530626 0.363908
vt 0.783010 0.363908
vt 0.076836 0.272635
vt 0.071507 0.449317
vn 0.0000 0.0000 -1.0000
vn -1.0000 0.0000 0.0000
vn -0.7295 0.0000 0.6839
vn 0.7619 0.0000 -0.6476
vn 0.8000 0.0000 0.6000
vn -0.6854 0.0000 -0.7282
vn 0.0000 1.0000 0.0000
vn 0.0000 -1.0000 0.0000
usemtl Material.001
s off
f 22/1/1 15/2/1 21/3/1
f 24/4/2 14/5/2 23/6/2
f 23/6/3 16/7/3 25/8/3
f 9/9/4 20/10/4 10/11/4
f 26/12/1 16/7/1 25/8/1
f 24/4/5 15/2/5 21/3/5
f 38/13/2 37/14/2 11/15/2
f 27/16/6 18/17/6 26/12/6
f 3/18/6 26/19/6 8/20/6
f 3/18/2 38/21/2 27/22/2
f 2/23/5 21/24/5 5/25/5
f 8/20/1 25/26/1 6/27/1
f 4/28/3 25/26/3 6/27/3
f 2/23/2 23/29/2 4/28/2
f 7/30/1 21/24/1 5/25/1
f 28/31/7 30/32/7 36/33/7
f 24/34/8 31/35/8 23/36/8
f 26/37/7 33/38/7 25/39/7
f 38/13/7 37/14/7 36/33/7
f 22/40/8 29/41/8 21/42/8
f 23/36/8 33/38/8 25/39/8
f 24/34/7 29/41/7 21/42/7
f 26/37/7 35/43/7 34/44/7
f 39/45/2 28/46/2 37/47/2
f 22/1/1 17/48/1 15/2/1
f 24/4/2 12/49/2 14/5/2
f 23/6/3 14/5/3 16/7/3
f 9/9/4 19/50/4 20/10/4
f 26/12/1 18/17/1 16/7/1
f 24/4/5 12/49/5 15/2/5
f 13/51/2 27/16/2 38/13/2
f 37/14/2 28/31/2 11/15/2
f 13/51/2 38/13/2 11/15/2
f 27/16/6 13/51/6 18/17/6
f 3/18/6 27/22/6 26/19/6
f 3/18/2 40/52/2 38/21/2
f 2/23/5 24/53/5 21/24/5
f 8/20/1 26/19/1 25/26/1
f 4/28/3 23/29/3 25/26/3
f 2/23/2 24/53/2 23/29/2
f 7/30/1 22/54/1 21/24/1
f 28/31/7 22/40/7 30/32/7
f 24/34/8 32/55/8 31/35/8
f 26/37/7 34/44/7 33/38/7
f 35/43/7 27/16/7 38/13/7
f 37/14/7 28/31/7 36/33/7
f 35/43/7 38/13/7 36/33/7
f 22/40/8 30/32/8 29/41/8
f 23/36/8 31/35/8 33/38/8
f 24/34/7 32/55/7 29/41/7
f 26/37/7 27/16/7 35/43/7
f 39/45/2 1/56/2 28/46/2
l 1 9
l 7 10
