# Blender v2.79 (sub 0) OBJ File: 'arena.blend'
# www.blender.org
mtllib arena.mtl
o Plane_Plane.001
v -3.141967 0.000000 1.899381
v 2.917727 0.000000 1.933061
v -3.139055 0.000000 -1.977367
v 2.895939 0.000000 -1.950231
v 2.055393 0.000000 3.090588
v 1.991064 0.000000 -2.943065
v -2.080444 0.000000 3.070962
v -2.093531 0.000000 -2.961954
v -3.079414 0.000000 1.876389
v -2.053394 0.000000 3.083472
v -3.141967 4.206791 1.899381
v 2.917727 4.206791 1.933061
v -3.139055 4.206791 -1.977367
v 2.895939 4.206791 -1.950231
v 2.055393 4.206791 3.090588
v 1.991064 4.206791 -2.943065
v -2.080444 4.206791 3.070962
v -2.093531 4.206791 -2.961954
v -3.079414 4.206791 1.876389
v -2.053394 4.206791 3.083472
v 2.055256 1.899644 3.090657
v -2.080444 1.899709 3.071119
v 2.898393 1.866223 -1.951202
v 2.918034 1.909560 1.932136
v 1.991493 1.881590 -2.942880
v -2.092559 1.919878 -2.959502
v -3.136689 1.919577 -1.976345
v -3.134516 1.936523 1.899381
v 1.360618 1.822140 2.126345
v -1.436640 1.822140 2.126345
v 1.977660 1.822142 -1.329091
v 1.977660 1.822140 1.303622
v 1.360618 1.963972 -1.987269
v -1.436640 1.963970 -1.987269
v -2.135954 1.963972 -1.329091
v -2.135954 1.963972 1.303622
v -3.136005 1.932391 0.943871
v -3.136005 1.932391 -0.863778
v -3.141967 0.000000 0.943871
v -3.141967 0.000000 -0.863777
v -3.106465 0.000000 1.899381
v 2.928952 0.000000 1.899381
v -3.106465 0.000000 -1.963286
v 2.928952 0.000000 -1.963286
v 2.023640 0.000000 3.106465
v 2.023640 0.000000 -2.928952
v -2.080444 0.000000 3.106465
v -2.080444 0.000000 -2.928952
v -3.106465 0.000000 1.899381
v -2.080444 0.000000 3.106465
v -3.106465 4.206791 1.899381
v 2.928952 4.206791 1.899381
v -3.106465 4.206791 -1.963286
v 2.928952 4.206791 -1.963286
v 2.023640 4.206791 3.106465
v 2.023640 4.206791 -2.928952
v -2.080444 4.206791 3.106465
v -2.080444 4.206791 -2.928952
v -3.106465 4.206791 1.899381
v -2.080444 4.206791 3.106465
v 2.023640 1.893056 3.106465
v -2.080444 1.893056 3.106465
v 2.928952 1.893056 -1.963286
v 2.928952 1.893056 1.899381
v 2.023640 1.893056 -2.928952
v -2.080444 1.893056 -2.928952
v -3.106465 1.893056 -1.963286
v -3.106465 1.893056 1.899381
v 1.360618 1.893056 2.126345
v -1.436640 1.893056 2.126345
v 1.977660 1.893056 -1.329091
v 1.977660 1.893056 1.303622
v 1.360618 1.893056 -1.987269
v -1.436640 1.893056 -1.987269
v -2.135954 1.893056 -1.329091
v -2.135954 1.893056 1.303622
v -3.106465 1.893056 0.943871
v -3.106465 1.893056 -0.863778
v -3.106465 0.000000 0.943871
v -3.106465 0.000000 -0.863777
vt 0.808763 0.299690
vt 0.999909 0.314878
vt 0.826836 0.250843
vt 0.745134 0.276148
vt 0.600315 0.167032
vt 0.582242 0.215879
vt 0.526421 0.195226
vt 0.544494 0.146379
vt 0.071325 0.406703
vt 0.000091 0.501400
vt 0.000091 0.406703
vt 0.353349 0.131191
vt 0.149112 0.000091
vt 0.312004 0.060360
vt 0.247564 0.092051
vt 0.371422 0.082344
vt 0.112885 0.406521
vt 0.049530 0.363908
vt 0.112885 0.363908
vt 0.000091 0.406521
vt 0.049530 0.406521
vt 0.530626 0.406521
vt 0.598471 0.363908
vt 0.598471 0.406521
vt 0.297424 0.363908
vt 0.297424 0.406521
vt 0.356942 0.363908
vt 0.356942 0.406521
vt 0.783010 0.406521
vt 0.131039 0.048938
vt 0.095414 0.115815
vt 0.141020 0.099161
vt 0.036869 0.303457
vt 0.187860 0.313713
vt 0.199761 0.363725
vt 0.254610 0.340615
vt 0.268888 0.179999
vt 0.225243 0.297961
vt 0.252043 0.140239
vt 0.064126 0.073372
vt 0.051768 0.233778
vt 0.000091 0.246445
vt 0.318645 0.167542
vt 0.114472 0.406703
vt 0.071507 0.449317
vt 0.071507 0.406703
vt 0.826836 0.250843
vt 0.981836 0.363726
vt 0.808763 0.299690
vt 0.600315 0.167032
vt 0.745134 0.276148
vt 0.582242 0.215879
vt 0.544494 0.146379
vt 0.526421 0.195226
vt 0.000091 0.501400
vt 0.071325 0.406703
vt 0.000091 0.406703
vt 0.353349 0.131191
vt 0.171333 0.063847
vt 0.247564 0.092051
vt 0.149112 0.000091
vt 0.371422 0.082344
vt 0.293931 0.109207
vt 0.112885 0.363908
vt 0.049530 0.406521
vt 0.112885 0.406521
vt 0.000091 0.363908
vt 0.000091 0.406521
vt 0.598471 0.363908
vt 0.530626 0.406521
vt 0.598471 0.406521
vt 0.297424 0.363908
vt 0.297424 0.406521
vt 0.356942 0.406521
vt 0.356942 0.363908
vt 0.783010 0.406521
vt 0.131039 0.048938
vt 0.095414 0.115815
vt 0.064126 0.073372
vt 0.187860 0.313713
vt 0.036869 0.303457
vt 0.199761 0.363725
vt 0.225243 0.297961
vt 0.318645 0.167542
vt 0.254610 0.340615
vt 0.141020 0.099161
vt 0.051768 0.233778
vt 0.000091 0.246445
vt 0.252043 0.140239
vt 0.071507 0.406703
vt 0.114472 0.449317
vt 0.114472 0.406703
vt 0.312004 0.060360
vt 0.763207 0.227301
vt 0.071325 0.501400
vt 0.763207 0.227301
vt 0.981836 0.363726
vt 0.999909 0.314878
vt 0.071325 0.501400
vt 0.783010 0.363908
vt 0.783010 0.363908
vt 0.268888 0.179999
vt 0.076836 0.272635
vt 0.114472 0.449317
vt 0.071507 0.449317
vt 0.000091 0.363908
vt 0.293931 0.109207
vt 0.171333 0.063847
vt 0.530626 0.363908
vt 0.049530 0.363908
vt 0.530626 0.363908
vt 0.076836 0.272635
vn 0.0047 -0.0000 -1.0000
vn -1.0000 -0.0011 0.0051
vn -0.7391 -0.0001 0.6736
vn 0.7619 0.0000 -0.6476
vn 0.0041 -0.0001 -1.0000
vn 0.8020 -0.0000 0.5973
vn -1.0000 -0.0017 -0.0008
vn -0.6856 -0.0011 -0.7280
vn -0.6855 0.0013 -0.7280
vn -1.0000 0.0012 -0.0026
vn 0.8019 0.0000 0.5974
vn 0.0046 0.0001 -1.0000
vn -0.7379 0.0001 0.6749
vn -1.0000 0.0013 0.0056
vn 0.0495 0.9905 0.1286
vn 0.0551 -0.9984 0.0109
vn -0.0000 0.9963 -0.0859
vn -0.0316 0.9995 0.0000
vn -0.0004 -0.9968 0.0804
vn -0.0644 -0.9970 0.0434
vn -0.0605 0.9975 -0.0366
vn -0.0261 0.9993 -0.0277
vn -1.0000 0.0038 0.0015
vn 0.0000 0.0000 1.0000
vn 1.0000 0.0000 0.0000
vn 0.7295 0.0000 -0.6839
vn -0.7619 0.0000 0.6476
vn -0.8000 0.0000 -0.6000
vn 0.6854 0.0000 0.7282
vn 0.0000 -1.0000 0.0000
vn 0.0000 1.0000 0.0000
vn -1.0000 0.0000 0.0000
vn 0.6476 0.0000 0.7619
vn -0.6476 0.0000 -0.7619
vn -0.2126 0.9603 0.1807
vn 0.8000 0.0000 0.6000
vn 0.0000 0.0000 -1.0000
vn 0.0047 -0.0001 -1.0000
vn -1.0000 -0.0001 0.0056
vn -0.7380 -0.0011 0.6749
vn 0.0046 -0.0011 -1.0000
vn 0.8019 -0.0001 0.5974
vn -1.0000 -0.0010 0.0006
vn -1.0000 -0.0026 0.0000
vn -1.0000 -0.0033 0.0016
vn -0.6855 -0.0010 -0.7280
vn -0.6856 0.0012 -0.7280
vn -1.0000 0.0031 0.0006
vn 0.8020 0.0002 0.5973
vn 0.0041 0.0013 -1.0000
vn -0.7391 0.0013 0.6736
vn -1.0000 0.0002 0.0051
vn 0.0047 0.0001 -1.0000
vn 0.0716 0.9969 -0.0331
vn 0.0926 -0.9957 -0.0000
vn 0.0096 0.9986 -0.0517
vn -0.0369 0.9993 -0.0115
vn -0.0300 0.9995 -0.0043
vn 0.0000 -0.9966 0.0818
vn -0.0590 -0.9858 -0.1571
vn -0.0617 0.9970 -0.0463
vn -0.0264 0.9993 -0.0277
vn -1.0000 0.0031 0.0000
vn -0.6758 -0.4361 0.5942
vn -0.7295 0.0000 0.6839
usemtl Material.001
s off
f 21/1/1 17/2/1 15/3/1
f 24/4/2 14/5/2 23/6/2
f 25/7/3 14/5/3 16/8/3
f 9/9/4 20/10/4 10/11/4
f 26/12/5 16/8/5 25/7/5
f 24/4/6 15/3/6 21/1/6
f 11/13/7 13/14/7 38/15/7
f 26/12/8 13/14/8 18/16/8
f 8/17/9 27/18/9 26/19/9
f 40/20/10 27/18/10 3/21/10
f 2/22/11 21/23/11 5/24/11
f 8/17/12 25/25/12 6/26/12
f 6/26/13 23/27/13 25/25/13
f 2/22/14 23/27/14 4/28/14
f 7/29/1 21/23/1 5/24/1
f 28/30/15 30/31/15 36/32/15
f 24/33/16 31/34/16 23/35/16
f 25/36/17 34/37/17 33/38/17
f 36/32/18 35/39/18 38/15/18
f 22/40/19 29/41/19 21/42/19
f 23/35/20 33/38/20 25/36/20
f 24/33/21 29/41/21 21/42/21
f 26/43/22 35/39/22 34/37/22
f 37/44/23 1/45/23 28/46/23
f 55/47/24 62/48/24 61/49/24
f 54/50/25 64/51/25 63/52/25
f 56/53/26 63/52/26 65/54/26
f 60/55/27 49/56/27 50/57/27
f 56/53/24 66/58/24 65/54/24
f 55/47/28 64/51/28 61/49/28
f 77/59/25 78/60/25 51/61/25
f 58/62/29 67/63/29 66/58/29
f 66/64/29 43/65/29 48/66/29
f 43/65/25 78/67/25 80/68/25
f 61/69/28 42/70/28 45/71/28
f 65/72/24 48/66/24 46/73/24
f 65/72/26 44/74/26 46/73/26
f 63/75/25 42/70/25 44/74/25
f 61/69/24 47/76/24 45/71/24
f 68/77/30 70/78/30 62/79/30
f 71/80/31 64/81/31 63/82/31
f 73/83/30 66/84/30 65/85/30
f 77/59/30 78/60/30 76/86/30
f 69/87/31 62/79/31 61/88/31
f 73/83/31 63/82/31 65/85/31
f 69/87/30 64/81/30 61/88/30
f 66/84/30 75/89/30 67/63/30
f 68/90/25 79/91/25 77/92/25
f 40/20/30 43/65/30 80/68/30
f 4/28/30 42/70/30 2/22/30
f 7/29/30 45/71/30 47/76/30
f 6/26/30 48/66/30 8/17/30
f 9/9/30 50/57/30 49/56/30
f 8/17/30 43/65/30 3/21/30
f 4/28/30 46/73/30 44/74/30
f 2/22/30 45/71/30 42/70/30
f 11/13/31 53/93/31 13/14/31
f 14/5/31 52/94/31 54/50/31
f 17/2/31 55/47/31 15/3/31
f 16/8/31 58/62/31 56/53/31
f 19/95/31 60/55/31 20/10/31
f 18/16/31 53/93/31 58/62/31
f 14/5/31 56/53/31 16/8/31
f 12/96/31 55/47/31 15/3/31
f 22/97/32 57/98/32 17/2/32
f 20/10/33 50/57/33 10/11/33
f 9/9/34 59/99/34 19/95/34
f 28/30/24 51/61/24 11/13/24
f 7/29/32 62/100/32 22/101/32
f 1/45/24 68/90/24 28/46/24
f 22/40/35 68/77/35 62/79/35
f 35/39/29 74/102/29 34/37/29
f 36/32/25 75/89/25 35/39/25
f 32/103/36 69/87/36 29/41/36
f 34/37/24 73/83/24 33/38/24
f 33/38/26 71/80/26 73/83/26
f 32/103/32 71/80/32 31/34/32
f 30/31/37 69/87/37 29/41/37
f 36/32/4 70/78/4 76/86/4
f 39/104/30 41/105/30 1/45/30
f 39/104/37 77/92/37 79/91/37
f 40/20/24 78/67/24 38/106/24
f 21/1/38 22/97/38 17/2/38
f 24/4/39 12/96/39 14/5/39
f 25/7/40 23/6/40 14/5/40
f 9/9/4 19/95/4 20/10/4
f 26/12/41 18/16/41 16/8/41
f 24/4/42 12/96/42 15/3/42
f 13/14/43 27/107/43 38/15/43
f 38/15/44 37/108/44 11/13/44
f 37/108/45 28/30/45 11/13/45
f 26/12/46 27/107/46 13/14/46
f 8/17/47 3/21/47 27/18/47
f 40/20/48 38/106/48 27/18/48
f 2/22/49 24/109/49 21/23/49
f 8/17/50 26/19/50 25/25/50
f 6/26/51 4/28/51 23/27/51
f 2/22/52 24/109/52 23/27/52
f 7/29/53 22/101/53 21/23/53
f 28/30/54 22/40/54 30/31/54
f 24/33/55 32/103/55 31/34/55
f 25/36/56 26/43/56 34/37/56
f 35/39/57 27/107/57 38/15/57
f 38/15/18 37/108/18 36/32/18
f 37/108/58 28/30/58 36/32/58
f 22/40/59 30/31/59 29/41/59
f 23/35/60 31/34/60 33/38/60
f 24/33/61 32/103/61 29/41/61
f 26/43/62 27/107/62 35/39/62
f 37/44/63 39/104/63 1/45/63
f 55/47/24 57/98/24 62/48/24
f 54/50/25 52/94/25 64/51/25
f 56/53/26 54/50/26 63/52/26
f 60/55/27 59/99/27 49/56/27
f 56/53/24 58/62/24 66/58/24
f 55/47/28 52/94/28 64/51/28
f 78/60/25 67/63/25 53/93/25
f 53/93/25 51/61/25 78/60/25
f 51/61/25 68/77/25 77/59/25
f 58/62/29 53/93/29 67/63/29
f 66/64/29 67/110/29 43/65/29
f 43/65/25 67/110/25 78/67/25
f 61/69/28 64/111/28 42/70/28
f 65/72/24 66/64/24 48/66/24
f 65/72/26 63/75/26 44/74/26
f 63/75/25 64/111/25 42/70/25
f 61/69/24 62/100/24 47/76/24
f 68/77/30 76/86/30 70/78/30
f 71/80/31 72/112/31 64/81/31
f 73/83/30 74/102/30 66/84/30
f 78/60/30 67/63/30 75/89/30
f 75/89/30 76/86/30 78/60/30
f 76/86/30 68/77/30 77/59/30
f 69/87/31 70/78/31 62/79/31
f 73/83/31 71/80/31 63/82/31
f 69/87/30 72/112/30 64/81/30
f 66/84/30 74/102/30 75/89/30
f 68/90/25 41/105/25 79/91/25
f 40/20/30 3/21/30 43/65/30
f 4/28/30 44/74/30 42/70/30
f 7/29/30 5/24/30 45/71/30
f 6/26/30 46/73/30 48/66/30
f 9/9/30 10/11/30 50/57/30
f 8/17/30 48/66/30 43/65/30
f 4/28/30 6/26/30 46/73/30
f 2/22/30 5/24/30 45/71/30
f 11/13/31 51/61/31 53/93/31
f 14/5/31 12/96/31 52/94/31
f 17/2/31 57/98/31 55/47/31
f 16/8/31 18/16/31 58/62/31
f 19/95/31 59/99/31 60/55/31
f 18/16/31 13/14/31 53/93/31
f 14/5/31 54/50/31 56/53/31
f 12/96/31 52/94/31 55/47/31
f 22/97/32 62/48/32 57/98/32
f 20/10/33 60/55/33 50/57/33
f 9/9/34 49/56/34 59/99/34
f 28/30/24 68/77/24 51/61/24
f 7/29/32 47/76/32 62/100/32
f 1/45/24 41/105/24 68/90/24
f 22/40/64 28/30/64 68/77/64
f 35/39/29 75/89/29 74/102/29
f 36/32/25 76/86/25 75/89/25
f 32/103/36 72/112/36 69/87/36
f 34/37/24 74/102/24 73/83/24
f 33/38/65 31/34/65 71/80/65
f 32/103/32 72/112/32 71/80/32
f 30/31/37 70/78/37 69/87/37
f 36/32/27 30/31/27 70/78/27
f 39/104/30 79/91/30 41/105/30
f 39/104/37 37/44/37 77/92/37
f 40/20/24 80/68/24 78/67/24
l 1 9
l 7 10
l 41 49
l 47 50
