# Blender v2.79 (sub 0) OBJ File: 'room.blend'
# www.blender.org
o Plane
v 6.586931 0.000000 -6.586931
v -6.586931 0.000000 -6.586931
v 6.586931 0.000000 6.586931
v -6.586931 0.000000 6.586931
v 6.586931 0.000000 5.389307
v 6.586931 0.000000 4.191683
v 6.586931 0.000000 2.994059
v 6.586931 0.000000 1.796435
v 6.586931 0.000000 0.598812
v 6.586931 0.000000 -0.598812
v 6.586931 0.000000 -1.796436
v 6.586931 0.000000 -2.994060
v 6.586931 0.000000 -4.191683
v 6.586931 0.000000 -5.389307
v 5.389307 0.000000 -6.586931
v 4.191683 0.000000 -6.586931
v 2.994059 0.000000 -6.586931
v 1.796435 0.000000 -6.586931
v 0.598812 0.000000 -6.586931
v -0.598812 0.000000 -6.586931
v -1.796436 0.000000 -6.586931
v -2.994060 0.000000 -6.586931
v -4.191683 0.000000 -6.586931
v -5.389307 0.000000 -6.586931
v -6.586931 0.000000 -5.389307
v -6.586931 0.000000 -4.191683
v -6.586931 0.000000 -2.994059
v -6.586931 0.000000 -1.796435
v -6.586931 0.000000 -0.598812
v -6.586931 0.000000 0.598812
v -6.586931 0.000000 1.796436
v -6.586931 0.000000 2.994060
v -6.586931 0.000000 4.191683
v -6.586931 0.000000 5.389307
v -5.389307 0.000000 6.586931
v -1.796435 0.000000 6.586931
v -0.598812 0.000000 6.586931
v 0.598812 0.000000 6.586931
v 1.796436 0.000000 6.586931
v 2.994060 0.000000 6.586931
v 4.191683 0.000000 6.586931
v 5.389307 0.000000 6.586931
v 5.389307 0.000000 -5.389307
v 5.389307 0.000000 -4.191683
v 5.389307 0.000000 -2.994059
v 5.389307 0.000000 -1.796435
v 5.389307 0.000000 -0.598812
v 5.389307 0.000000 0.598812
v 5.389307 0.000000 1.796436
v 5.389307 0.000000 2.994060
v 5.389307 0.000000 4.191683
v 5.389307 0.000000 5.389307
v 4.191683 0.000000 -5.389307
v 4.191683 0.000000 5.389307
v 2.994059 0.000000 -5.389307
v 2.994059 0.000000 5.389307
v 1.796435 0.000000 -5.389307
v 1.796435 0.000000 5.389307
v 0.598812 0.000000 -5.389307
v 0.598812 0.000000 5.389307
v -0.598812 0.000000 -5.389307
v -0.598812 0.000000 5.389307
v -1.796436 0.000000 -5.389307
v -1.796435 0.000000 5.389307
v -2.994060 0.000000 -5.389307
v -4.191683 0.000000 -5.389307
v -5.389307 0.000000 -5.389307
v -5.389307 0.000000 -4.191683
v -5.389307 0.000000 -2.994059
v -5.389307 0.000000 -1.796435
v -5.389307 0.000000 -0.598812
v -5.389307 0.000000 0.598812
v -5.389307 0.000000 1.796436
v -5.389307 0.000000 2.994060
v -5.389307 0.000000 4.191683
v -5.389307 0.000000 5.389307
v 6.586931 0.000000 -5.389307
v 6.586931 0.000000 -6.586931
v -5.389307 0.000000 -6.586931
v -6.586931 0.000000 -6.586931
v -6.586931 0.000000 5.389307
v -6.586931 0.000000 6.586931
v 5.389307 0.000000 6.586931
v 6.586931 0.000000 6.586931
v 6.586931 0.000000 5.389307
v 6.586931 0.000000 4.191683
v 6.586931 0.000000 2.994059
v 6.586931 0.000000 1.796435
v 6.586931 0.000000 0.598812
v 6.586931 0.000000 -0.598812
v 6.586931 0.000000 -1.796436
v 6.586931 0.000000 -2.994060
v 6.586931 0.000000 -4.191683
v 5.389307 0.000000 -6.586931
v 4.191683 0.000000 -6.586931
v 2.994059 0.000000 -6.586931
v 1.796435 0.000000 -6.586931
v 0.598812 0.000000 -6.586931
v -0.598812 0.000000 -6.586931
v -1.796436 0.000000 -6.586931
v -2.994060 0.000000 -6.586931
v -4.191683 0.000000 -6.586931
v -6.586931 0.000000 -5.389307
v -6.586931 0.000000 -4.191683
v -6.586931 0.000000 -2.994059
v -6.586931 0.000000 -1.796435
v -6.586931 0.000000 -0.598812
v -6.586931 0.000000 0.598812
v -6.586931 0.000000 1.796436
v -6.586931 0.000000 2.994060
v -6.586931 0.000000 4.191683
v -5.389307 0.000000 6.586931
v -1.796435 0.000000 6.586931
v -0.598812 0.000000 6.586931
v 0.598812 0.000000 6.586931
v 1.796436 0.000000 6.586931
v 2.994060 0.000000 6.586931
v 4.191683 0.000000 6.586931
v 5.389307 0.000000 5.389307
v 5.389307 0.000000 -5.389307
v 5.389307 0.000000 -4.191683
v 5.389307 0.000000 -2.994059
v 5.389307 0.000000 -1.796435
v 5.389307 0.000000 -0.598812
v 5.389307 0.000000 0.598812
v 5.389307 0.000000 1.796436
v 5.389307 0.000000 2.994060
v 5.389307 0.000000 4.191683
v 4.191683 0.000000 5.389307
v 4.191683 0.000000 -5.389307
v 2.994059 0.000000 5.389307
v 2.994059 0.000000 -5.389307
v 1.796435 0.000000 5.389307
v 1.796435 0.000000 -5.389307
v 0.598812 0.000000 5.389307
v 0.598812 0.000000 -5.389307
v -0.598812 0.000000 5.389307
v -0.598812 0.000000 -5.389307
v -1.796435 0.000000 5.389307
v -1.796436 0.000000 -5.389307
v -2.994060 0.000000 -5.389307
v -4.191683 0.000000 -5.389307
v -5.389307 0.000000 5.389307
v -5.389307 0.000000 -5.389307
v -5.389307 0.000000 -4.191683
v -5.389307 0.000000 -2.994059
v -5.389307 0.000000 -1.796435
v -5.389307 0.000000 -0.598812
v -5.389307 0.000000 0.598812
v -5.389307 0.000000 1.796436
v -5.389307 0.000000 2.994060
v -5.389307 0.000000 4.191683
v 6.586931 4.000000 -5.389307
v 6.586931 4.000000 -6.586931
v -5.389307 4.000000 -6.586931
v -6.586931 4.000000 -6.586931
v -6.586931 4.000000 5.389307
v -6.586931 4.000000 6.586931
v 5.389307 4.000000 6.586931
v 6.586931 4.000000 6.586931
v 6.586931 4.000000 5.389307
v 6.586931 4.000000 4.191683
v 6.586931 4.000000 2.994059
v 6.586931 4.000000 1.796435
v 6.586931 4.000000 0.598812
v 6.586931 4.000000 -0.598812
v 6.586931 4.000000 -1.796436
v 6.586931 4.000000 -2.994060
v 6.586931 4.000000 -4.191683
v 5.389307 4.000000 -6.586931
v 4.191683 4.000000 -6.586931
v 2.994059 4.000000 -6.586931
v 1.796435 4.000000 -6.586931
v 0.598812 4.000000 -6.586931
v -0.598812 4.000000 -6.586931
v -1.796436 4.000000 -6.586931
v -2.994060 4.000000 -6.586931
v -4.191683 4.000000 -6.586931
v -6.586931 4.000000 -5.389307
v -6.586931 4.000000 -4.191683
v -6.586931 4.000000 -2.994059
v -6.586931 4.000000 -1.796435
v -6.586931 4.000000 -0.598812
v -6.586931 4.000000 0.598812
v -6.586931 4.000000 1.796436
v -6.586931 4.000000 2.994060
v -6.586931 4.000000 4.191683
v -5.389307 4.000000 6.586931
v -1.796435 4.000000 6.586931
v -0.598812 4.000000 6.586931
v 0.598812 4.000000 6.586931
v 1.796436 4.000000 6.586931
v 2.994060 4.000000 6.586931
v 4.191683 4.000000 6.586931
v 5.389307 4.000000 5.389307
v 5.389307 4.000000 -5.389307
v 5.389307 4.000000 -4.191683
v 5.389307 4.000000 -2.994059
v 5.389307 4.000000 -1.796435
v 5.389307 4.000000 -0.598812
v 5.389307 4.000000 0.598812
v 5.389307 4.000000 1.796436
v 5.389307 4.000000 2.994060
v 5.389307 4.000000 4.191683
v 4.191683 4.000000 5.389307
v 4.191683 4.000000 -5.389307
v 2.994059 4.000000 5.389307
v 2.994059 4.000000 -5.389307
v 1.796435 4.000000 5.389307
v 1.796435 4.000000 -5.389307
v 0.598812 4.000000 5.389307
v 0.598812 4.000000 -5.389307
v -0.598812 4.000000 5.389307
v -0.598812 4.000000 -5.389307
v -1.796435 4.000000 5.389307
v -1.796436 4.000000 -5.389307
v -2.994060 4.000000 -5.389307
v -4.191683 4.000000 -5.389307
v -5.389307 4.000000 5.389307
v -5.389307 4.000000 -5.389307
v -5.389307 4.000000 -4.191683
v -5.389307 4.000000 -2.994059
v -5.389307 4.000000 -1.796435
v -5.389307 4.000000 -0.598812
v -5.389307 4.000000 0.598812
v -5.389307 4.000000 1.796436
v -5.389307 4.000000 2.994060
v -5.389307 4.000000 4.191683
vt 0.682099 0.252437
vt 0.650838 0.250044
vt 0.650871 0.249497
vt 0.744278 0.020078
vt 0.775625 0.026696
vt 0.775503 0.027216
vt 0.309746 0.249985
vt 0.279841 0.253004
vt 0.279785 0.252484
vt 0.687950 0.014683
vt 0.716174 0.016788
vt 0.716131 0.017279
vt 0.339830 0.246979
vt 0.309689 0.249462
vt 0.659179 0.012886
vt 0.687920 0.015180
vt 0.980327 0.229811
vt 0.957785 0.248027
vt 0.957517 0.247591
vt 0.370129 0.244211
vt 0.339776 0.246453
vt 0.629958 0.011087
vt 0.659152 0.013392
vt 0.930825 0.259754
vt 0.930660 0.259261
vt 0.400468 0.242070
vt 0.370082 0.243683
vt 0.587892 0.246439
vt 0.556433 0.244872
vt 0.556455 0.244323
vt 0.600449 0.009193
vt 0.629931 0.011600
vt 0.901415 0.266430
vt 0.901327 0.265905
vt 0.429747 0.240917
vt 0.400435 0.241551
vt 0.084056 0.265887
vt 0.059579 0.262097
vt 0.059681 0.261683
vt 0.570786 0.007183
vt 0.600419 0.009709
vt 0.870727 0.269269
vt 0.870698 0.268728
vt 0.541081 0.005068
vt 0.570755 0.007701
vt 0.839391 0.269269
vt 0.839404 0.268719
vt 0.511420 0.002924
vt 0.541049 0.005585
vt 0.807702 0.267225
vt 0.807745 0.266670
vt 0.058676 0.097352
vt 0.081093 0.081075
vt 0.081361 0.081479
vt 0.493176 0.242100
vt 0.461305 0.241130
vt 0.461311 0.240577
vt 0.481813 0.001018
vt 0.511389 0.003441
vt 0.775772 0.263784
vt 0.775834 0.263225
vt 0.037995 0.115881
vt 0.058983 0.097726
vt 0.162299 0.263151
vt 0.136247 0.265260
vt 0.136214 0.264802
vt 0.451918 0.000052
vt 0.481792 0.001537
vt 0.743690 0.259563
vt 0.743758 0.259006
vt 0.020074 0.136837
vt 0.038343 0.116216
vt 0.619352 0.248126
vt 0.619379 0.247577
vt 0.419609 0.001037
vt 0.451923 0.000593
vt 0.711878 0.255381
vt 0.711935 0.254845
vt 0.006619 0.160397
vt 0.020467 0.137109
vt 0.036968 0.253895
vt 0.017535 0.239557
vt 0.017877 0.239254
vt 0.362606 0.009128
vt 0.390823 0.004564
vt 0.390898 0.005060
vt 0.689155 0.141920
vt 0.682141 0.251905
vt 0.624970 0.110394
vt 0.298432 0.149644
vt 0.891662 0.179975
vt 0.655967 0.142289
vt 0.594401 0.109312
vt 0.328121 0.145106
vt 0.869378 0.176470
vt 0.059742 0.204487
vt 0.037165 0.253520
vt 0.563781 0.107660
vt 0.358573 0.139925
vt 0.844896 0.171947
vt 0.624236 0.141551
vt 0.587916 0.245891
vt 0.533190 0.105505
vt 0.390678 0.133228
vt 0.818607 0.166412
vt 0.070878 0.202377
vt 0.502851 0.102693
vt 0.428572 0.122791
vt 0.429734 0.240388
vt 0.790677 0.159702
vt 0.592979 0.140253
vt 0.473473 0.098606
vt 0.760755 0.151106
vt 0.085848 0.197901
vt 0.084091 0.265449
vt 0.447864 0.091815
vt 0.561830 0.138528
vt 0.524909 0.242856
vt 0.427302 0.078775
vt 0.419652 0.001567
vt 0.111892 0.160584
vt 0.945350 0.182467
vt 0.995977 0.202534
vt 0.979918 0.229469
vt 0.104074 0.191109
vt 0.109751 0.266099
vt 0.380691 0.103192
vt 0.362692 0.009620
vt 0.094158 0.172089
vt 0.530587 0.136340
vt 0.493191 0.241546
vt 0.352176 0.110051
vt 0.334328 0.014480
vt 0.078312 0.181813
vt 0.125715 0.181549
vt 0.323028 0.115555
vt 0.305730 0.019390
vt 0.250063 0.255896
vt 0.250010 0.255378
vt 0.804005 0.034647
vt 0.803859 0.035137
vt 0.109761 0.266554
vt 0.220399 0.258560
vt 0.220350 0.258046
vt 0.831699 0.043902
vt 0.831534 0.044383
vt 0.524889 0.243408
vt 0.190962 0.260954
vt 0.190917 0.260448
vt 0.858992 0.054091
vt 0.858810 0.054563
vt 0.744196 0.020593
vt 0.162257 0.262677
vt 0.885701 0.065209
vt 0.885502 0.065669
vt 0.992226 0.147237
vt 0.999948 0.172447
vt 0.999451 0.172487
vt 0.911487 0.077494
vt 0.911264 0.077933
vt 0.105286 0.067093
vt 0.105514 0.067556
vt 0.935876 0.091325
vt 0.935621 0.091735
vt 0.134647 0.055066
vt 0.134831 0.055562
vt 0.958202 0.107187
vt 0.957905 0.107554
vt 0.162527 0.046594
vt 0.162663 0.047082
vt 0.003268 0.215529
vt 0.003749 0.215367
vt 0.977489 0.125636
vt 0.977139 0.125938
vt 0.190743 0.039939
vt 0.190856 0.040433
vt 0.991812 0.147440
vt 0.219309 0.034179
vt 0.219409 0.034678
vt 0.996498 0.202708
vt 0.248067 0.028884
vt 0.248162 0.029385
vt 0.276882 0.023832
vt 0.276974 0.024333
vt 0.305640 0.018891
vt 0.334239 0.013984
vt 0.000052 0.186455
vt 0.000545 0.186480
vt 0.007060 0.160571
vt 0.938927 0.183496
vt 0.940855 0.174730
vt 0.140423 0.134239
vt 0.157791 0.136226
vt 0.152204 0.165370
vt 0.129156 0.146814
vt 0.065506 0.190002
vt 0.056500 0.196604
vt 0.053398 0.204385
vt 0.406113 0.093619
vt 0.293918 0.120414
vt 0.265084 0.124894
vt 0.236675 0.129049
vt 0.269229 0.153806
vt 0.208901 0.132748
vt 0.240405 0.157659
vt 0.182216 0.135523
vt 0.211831 0.161146
vt 0.183051 0.164004
vt 0.466324 0.129199
vt 0.498986 0.133465
vt 0.655388 0.110609
vt 0.685300 0.109255
vt 0.713379 0.104975
vt 0.726782 0.137649
vt 0.733537 0.099057
vt 0.749050 0.110980
vt 0.772950 0.122464
vt 0.799242 0.131675
vt 0.825538 0.139521
vt 0.850818 0.146503
vt 0.874487 0.152860
vt 0.911192 0.182380
vt 0.896014 0.158748
vt 0.927245 0.183556
vt 0.914788 0.164317
vt 0.930031 0.169689
vt 0.946773 0.178959
vt 0.051640 0.201282
vn 0.0000 0.0000 1.0000
vn 0.0000 0.0000 -1.0000
vn -1.0000 0.0000 0.0000
vn 1.0000 0.0000 0.0000
vn 0.0000 1.0000 0.0000
s off
f 66/1/1 65/2/1 141/3/1
f 2/4/1 25/5/1 103/6/1
f 47/7/1 48/8/1 125/9/1
f 23/10/1 24/11/1 79/12/1
f 46/13/1 47/7/1 124/14/1
f 22/15/1 23/10/1 102/16/1
f 76/17/1 75/18/1 152/19/1
f 45/20/1 46/13/1 123/21/1
f 21/22/1 22/15/1 101/23/1
f 75/18/1 74/24/1 151/25/1
f 44/26/1 45/20/1 122/27/1
f 61/28/1 59/29/1 136/30/1
f 20/31/1 21/22/1 100/32/1
f 74/24/1 73/33/1 150/34/1
f 43/35/1 44/26/1 121/36/1
f 58/37/1 60/38/1 135/39/1
f 19/40/1 20/31/1 99/41/1
f 73/33/1 72/42/1 149/43/1
f 18/44/1 19/40/1 98/45/1
f 72/42/1 71/46/1 148/47/1
f 17/48/1 18/44/1 97/49/1
f 71/46/1 70/50/1 147/51/1
f 41/52/1 42/53/1 83/54/1
f 55/55/1 53/56/1 130/57/1
f 16/58/1 17/48/1 96/59/1
f 70/50/1 69/60/1 146/61/1
f 40/62/1 41/52/1 118/63/1
f 52/64/1 54/65/1 129/66/1
f 15/67/1 16/58/1 95/68/1
f 69/60/1 68/69/1 145/70/1
f 39/71/1 40/62/1 117/72/1
f 65/2/1 63/73/1 140/74/1
f 1/75/1 15/67/1 94/76/1
f 68/69/1 67/77/1 144/78/1
f 38/79/1 39/71/1 116/80/1
f 62/81/1 64/82/1 139/83/1
f 13/84/1 14/85/1 77/86/1
f 218/87/1 142/88/1 141/3/1
f 176/89/2 100/32/2 101/23/2
f 200/90/3 124/14/3 125/9/3
f 226/91/4 150/34/4 149/43/4
f 217/92/1 141/3/1 140/74/1
f 175/93/2 99/41/2 100/32/2
f 199/94/3 123/21/3 124/14/3
f 225/95/4 149/43/4 148/47/4
f 213/96/2 137/97/2 139/83/2
f 174/98/2 98/45/2 99/41/2
f 198/99/3 122/27/3 123/21/3
f 224/100/4 148/47/4 147/51/4
f 216/101/1 140/74/1 138/102/1
f 173/103/2 97/49/2 98/45/2
f 197/104/3 121/36/3 122/27/3
f 223/105/4 147/51/4 146/61/4
f 211/106/2 135/39/2 137/97/2
f 172/107/2 96/59/2 97/49/2
f 196/108/3 120/109/3 121/36/3
f 222/110/4 146/61/4 145/70/4
f 214/111/1 138/102/1 136/30/1
f 171/112/2 95/68/2 96/59/2
f 221/113/4 145/70/4 144/78/4
f 209/114/2 133/115/2 135/39/2
f 170/116/2 94/76/2 95/68/2
f 212/117/1 136/30/1 134/118/1
f 154/119/2 78/120/2 94/76/2
f 194/121/1 118/63/1 83/54/1
f 188/122/4 112/123/4 143/124/4
f 207/125/2 131/126/2 133/115/2
f 169/127/4 93/128/4 77/86/4
f 193/129/1 117/72/1 118/63/1
f 210/130/1 134/118/1 132/131/1
f 168/132/4 92/133/4 93/128/4
f 192/134/1 116/80/1 117/72/1
f 205/135/2 129/66/2 131/126/2
f 167/136/4 91/137/4 92/133/4
f 48/8/1 49/138/1 126/139/1
f 25/5/1 26/140/1 104/141/1
f 54/65/1 56/142/1 131/126/1
f 49/138/1 50/143/1 127/144/1
f 26/140/1 27/145/1 105/146/1
f 14/85/1 1/75/1 78/120/1
f 57/147/1 55/55/1 132/131/1
f 50/143/1 51/148/1 128/149/1
f 27/145/1 28/150/1 106/151/1
f 24/11/1 2/4/1 80/152/1
f 51/148/1 52/64/1 119/153/1
f 28/150/1 29/154/1 107/155/1
f 34/156/1 4/157/1 82/158/1
f 29/154/1 30/159/1 108/160/1
f 42/53/1 3/161/1 84/162/1
f 60/38/1 62/81/1 137/97/1
f 30/159/1 31/163/1 109/164/1
f 3/161/1 5/165/1 85/166/1
f 63/73/1 61/28/1 138/102/1
f 31/163/1 32/167/1 110/168/1
f 5/165/1 6/169/1 86/170/1
f 64/82/1 36/171/1 113/172/1
f 32/167/1 33/173/1 111/174/1
f 6/169/1 7/175/1 87/176/1
f 53/56/1 43/35/1 120/109/1
f 33/173/1 34/156/1 81/177/1
f 7/175/1 8/178/1 88/179/1
f 4/157/1 35/180/1 112/123/1
f 8/178/1 9/181/1 89/182/1
f 67/77/1 66/1/1 142/88/1
f 9/181/1 10/183/1 90/184/1
f 56/142/1 58/37/1 133/115/1
f 10/183/1 11/185/1 91/137/1
f 59/29/1 57/147/1 134/118/1
f 11/185/1 12/186/1 92/133/1
f 36/171/1 37/187/1 114/188/1
f 35/180/1 76/17/1 143/124/1
f 12/186/1 13/84/1 93/128/1
f 37/187/1 38/79/1 115/189/1
f 188/122/5 219/190/5 157/191/5
f 160/192/5 161/193/5 195/194/5
f 159/195/5 195/194/5 205/135/5
f 205/135/5 207/125/5 193/129/5
f 207/125/5 209/114/5 192/134/5
f 192/134/5 209/114/5 211/106/5
f 191/196/5 211/106/5 213/96/5
f 190/197/5 213/96/5 215/198/5
f 153/199/5 154/119/5 170/116/5
f 169/127/5 153/199/5 196/108/5
f 168/132/5 169/127/5 197/104/5
f 167/136/5 168/132/5 198/99/5
f 166/200/5 167/136/5 199/94/5
f 165/201/5 166/200/5 200/90/5
f 164/202/5 165/201/5 201/203/5
f 163/204/5 164/202/5 202/205/5
f 162/206/5 163/204/5 203/207/5
f 161/193/5 162/206/5 204/208/5
f 196/108/5 170/116/5 171/112/5
f 206/209/5 171/112/5 172/107/5
f 208/210/5 172/107/5 173/103/5
f 210/130/5 173/103/5 174/98/5
f 174/98/5 175/93/5 214/111/5
f 175/93/5 176/89/5 216/101/5
f 216/101/5 176/89/5 177/211/5
f 217/92/5 177/211/5 178/212/5
f 218/87/5 178/212/5 155/213/5
f 220/214/5 155/213/5 156/215/5
f 221/113/5 220/214/5 179/216/5
f 222/110/5 221/113/5 180/217/5
f 223/105/5 222/110/5 181/218/5
f 224/100/5 223/105/5 182/219/5
f 225/95/5 224/100/5 183/220/5
f 226/91/5 225/95/5 184/221/5
f 227/222/5 226/91/5 185/223/5
f 228/224/5 227/222/5 186/225/5
f 219/190/5 228/224/5 187/226/5
f 227/222/4 151/25/4 150/34/4
f 201/203/3 125/9/3 126/139/3
f 177/211/2 101/23/2 102/16/2
f 220/214/1 144/78/1 142/88/1
f 228/224/4 152/19/4 151/25/4
f 202/205/3 126/139/3 127/144/3
f 178/212/2 102/16/2 79/12/2
f 219/190/4 143/124/4 152/19/4
f 203/207/3 127/144/3 128/149/3
f 156/215/3 80/152/3 103/6/3
f 204/208/3 128/149/3 119/153/3
f 179/216/3 103/6/3 104/141/3
f 180/217/3 104/141/3 105/146/3
f 153/199/4 77/86/4 78/120/4
f 181/218/3 105/146/3 106/151/3
f 155/213/2 79/12/2 80/152/2
f 182/219/3 106/151/3 107/155/3
f 157/191/3 81/177/3 82/158/3
f 183/220/3 107/155/3 108/160/3
f 159/195/1 83/54/1 84/162/1
f 184/221/3 108/160/3 109/164/3
f 160/192/4 84/162/4 85/166/4
f 185/223/3 109/164/3 110/168/3
f 161/193/4 85/166/4 86/170/4
f 186/225/3 110/168/3 111/174/3
f 162/206/4 86/170/4 87/176/4
f 187/226/3 111/174/3 81/177/3
f 163/204/4 87/176/4 88/179/4
f 158/227/1 82/158/1 112/123/1
f 164/202/4 88/179/4 89/182/4
f 206/209/1 130/57/1 120/109/1
f 189/228/1 113/172/1 114/188/1
f 165/201/4 89/182/4 90/184/4
f 195/194/2 119/153/2 129/66/2
f 215/198/3 139/83/3 113/172/3
f 190/197/1 114/188/1 115/189/1
f 166/200/4 90/184/4 91/137/4
f 208/210/1 132/131/1 130/57/1
f 191/196/1 115/189/1 116/80/1
f 66/1/1 141/3/1 142/88/1
f 2/4/1 103/6/1 80/152/1
f 47/7/1 125/9/1 124/14/1
f 23/10/1 79/12/1 102/16/1
f 46/13/1 124/14/1 123/21/1
f 22/15/1 102/16/1 101/23/1
f 76/17/1 152/19/1 143/124/1
f 45/20/1 123/21/1 122/27/1
f 21/22/1 101/23/1 100/32/1
f 75/18/1 151/25/1 152/19/1
f 44/26/1 122/27/1 121/36/1
f 61/28/1 136/30/1 138/102/1
f 20/31/1 100/32/1 99/41/1
f 74/24/1 150/34/1 151/25/1
f 43/35/1 121/36/1 120/109/1
f 58/37/1 135/39/1 133/115/1
f 19/40/1 99/41/1 98/45/1
f 73/33/1 149/43/1 150/34/1
f 18/44/1 98/45/1 97/49/1
f 72/42/1 148/47/1 149/43/1
f 17/48/1 97/49/1 96/59/1
f 71/46/1 147/51/1 148/47/1
f 41/52/1 83/54/1 118/63/1
f 55/55/1 130/57/1 132/131/1
f 16/58/1 96/59/1 95/68/1
f 70/50/1 146/61/1 147/51/1
f 40/62/1 118/63/1 117/72/1
f 52/64/1 129/66/1 119/153/1
f 15/67/1 95/68/1 94/76/1
f 69/60/1 145/70/1 146/61/1
f 39/71/1 117/72/1 116/80/1
f 65/2/1 140/74/1 141/3/1
f 1/75/1 94/76/1 78/120/1
f 68/69/1 144/78/1 145/70/1
f 38/79/1 116/80/1 115/189/1
f 62/81/1 139/83/1 137/97/1
f 13/84/1 77/86/1 93/128/1
f 218/87/1 141/3/1 217/92/1
f 176/89/2 101/23/2 177/211/2
f 200/90/3 125/9/3 201/203/3
f 226/91/4 149/43/4 225/95/4
f 217/92/1 140/74/1 216/101/1
f 175/93/2 100/32/2 176/89/2
f 199/94/3 124/14/3 200/90/3
f 225/95/4 148/47/4 224/100/4
f 213/96/2 139/83/2 215/198/2
f 174/98/2 99/41/2 175/93/2
f 198/99/3 123/21/3 199/94/3
f 224/100/4 147/51/4 223/105/4
f 216/101/1 138/102/1 214/111/1
f 173/103/2 98/45/2 174/98/2
f 197/104/3 122/27/3 198/99/3
f 223/105/4 146/61/4 222/110/4
f 211/106/2 137/97/2 213/96/2
f 172/107/2 97/49/2 173/103/2
f 196/108/3 121/36/3 197/104/3
f 222/110/4 145/70/4 221/113/4
f 214/111/1 136/30/1 212/117/1
f 171/112/2 96/59/2 172/107/2
f 221/113/4 144/78/4 220/214/4
f 209/114/2 135/39/2 211/106/2
f 170/116/2 95/68/2 171/112/2
f 212/117/1 134/118/1 210/130/1
f 154/119/2 94/76/2 170/116/2
f 194/121/1 83/54/1 159/195/1
f 188/122/4 143/124/4 219/190/4
f 207/125/2 133/115/2 209/114/2
f 169/127/4 77/86/4 153/199/4
f 193/129/1 118/63/1 194/121/1
f 210/130/1 132/131/1 208/210/1
f 168/132/4 93/128/4 169/127/4
f 192/134/1 117/72/1 193/129/1
f 205/135/2 131/126/2 207/125/2
f 167/136/4 92/133/4 168/132/4
f 48/8/1 126/139/1 125/9/1
f 25/5/1 104/141/1 103/6/1
f 54/65/1 131/126/1 129/66/1
f 49/138/1 127/144/1 126/139/1
f 26/140/1 105/146/1 104/141/1
f 14/85/1 78/120/1 77/86/1
f 57/147/1 132/131/1 134/118/1
f 50/143/1 128/149/1 127/144/1
f 27/145/1 106/151/1 105/146/1
f 24/11/1 80/152/1 79/12/1
f 51/148/1 119/153/1 128/149/1
f 28/150/1 107/155/1 106/151/1
f 34/156/1 82/158/1 81/177/1
f 29/154/1 108/160/1 107/155/1
f 42/53/1 84/162/1 83/54/1
f 60/38/1 137/97/1 135/39/1
f 30/159/1 109/164/1 108/160/1
f 3/161/1 85/166/1 84/162/1
f 63/73/1 138/102/1 140/74/1
f 31/163/1 110/168/1 109/164/1
f 5/165/1 86/170/1 85/166/1
f 64/82/1 113/172/1 139/83/1
f 32/167/1 111/174/1 110/168/1
f 6/169/1 87/176/1 86/170/1
f 53/56/1 120/109/1 130/57/1
f 33/173/1 81/177/1 111/174/1
f 7/175/1 88/179/1 87/176/1
f 4/157/1 112/123/1 82/158/1
f 8/178/1 89/182/1 88/179/1
f 67/77/1 142/88/1 144/78/1
f 9/181/1 90/184/1 89/182/1
f 56/142/1 133/115/1 131/126/1
f 10/183/1 91/137/1 90/184/1
f 59/29/1 134/118/1 136/30/1
f 11/185/1 92/133/1 91/137/1
f 36/171/1 114/188/1 113/172/1
f 35/180/1 143/124/1 112/123/1
f 12/186/1 93/128/1 92/133/1
f 37/187/1 115/189/1 114/188/1
f 188/122/5 157/191/5 158/227/5
f 160/192/5 195/194/5 159/195/5
f 159/195/5 205/135/5 194/121/5
f 205/135/5 193/129/5 194/121/5
f 207/125/5 192/134/5 193/129/5
f 192/134/5 211/106/5 191/196/5
f 191/196/5 213/96/5 190/197/5
f 190/197/5 215/198/5 189/228/5
f 153/199/5 170/116/5 196/108/5
f 169/127/5 196/108/5 197/104/5
f 168/132/5 197/104/5 198/99/5
f 167/136/5 198/99/5 199/94/5
f 166/200/5 199/94/5 200/90/5
f 165/201/5 200/90/5 201/203/5
f 164/202/5 201/203/5 202/205/5
f 163/204/5 202/205/5 203/207/5
f 162/206/5 203/207/5 204/208/5
f 161/193/5 204/208/5 195/194/5
f 196/108/5 171/112/5 206/209/5
f 206/209/5 172/107/5 208/210/5
f 208/210/5 173/103/5 210/130/5
f 210/130/5 174/98/5 212/117/5
f 174/98/5 214/111/5 212/117/5
f 175/93/5 216/101/5 214/111/5
f 216/101/5 177/211/5 217/92/5
f 217/92/5 178/212/5 218/87/5
f 218/87/5 155/213/5 220/214/5
f 220/214/5 156/215/5 179/216/5
f 221/113/5 179/216/5 180/217/5
f 222/110/5 180/217/5 181/218/5
f 223/105/5 181/218/5 182/219/5
f 224/100/5 182/219/5 183/220/5
f 225/95/5 183/220/5 184/221/5
f 226/91/5 184/221/5 185/223/5
f 227/222/5 185/223/5 186/225/5
f 228/224/5 186/225/5 187/226/5
f 219/190/5 187/226/5 157/191/5
f 227/222/4 150/34/4 226/91/4
f 201/203/3 126/139/3 202/205/3
f 177/211/2 102/16/2 178/212/2
f 220/214/1 142/88/1 218/87/1
f 228/224/4 151/25/4 227/222/4
f 202/205/3 127/144/3 203/207/3
f 178/212/2 79/12/2 155/213/2
f 219/190/4 152/19/4 228/224/4
f 203/207/3 128/149/3 204/208/3
f 156/215/3 103/6/3 179/216/3
f 204/208/3 119/153/3 195/194/3
f 179/216/3 104/141/3 180/217/3
f 180/217/3 105/146/3 181/218/3
f 153/199/4 78/120/4 154/119/4
f 181/218/3 106/151/3 182/219/3
f 155/213/2 80/152/2 156/215/2
f 182/219/3 107/155/3 183/220/3
f 157/191/3 82/158/3 158/227/3
f 183/220/3 108/160/3 184/221/3
f 159/195/1 84/162/1 160/192/1
f 184/221/3 109/164/3 185/223/3
f 160/192/4 85/166/4 161/193/4
f 185/223/3 110/168/3 186/225/3
f 161/193/4 86/170/4 162/206/4
f 186/225/3 111/174/3 187/226/3
f 162/206/4 87/176/4 163/204/4
f 187/226/3 81/177/3 157/191/3
f 163/204/4 88/179/4 164/202/4
f 158/227/1 112/123/1 188/122/1
f 164/202/4 89/182/4 165/201/4
f 206/209/1 120/109/1 196/108/1
f 189/228/1 114/188/1 190/197/1
f 165/201/4 90/184/4 166/200/4
f 195/194/2 129/66/2 205/135/2
f 215/198/3 113/172/3 189/228/3
f 190/197/1 115/189/1 191/196/1
f 166/200/4 91/137/4 167/136/4
f 208/210/1 130/57/1 206/209/1
f 191/196/1 116/80/1 192/134/1
