# Blender v2.79 (sub 0) OBJ File: 'lowpoly.blend'
# www.blender.org
o Cylinder.001_Cylinder.003
v 0.000000 0.740234 0.300000
v 0.000000 0.140234 0.300000
v -0.212132 0.740234 0.212132
v -0.212132 0.140234 0.212132
v -0.300000 0.740234 -0.000000
v -0.300000 0.140234 -0.000000
v -0.212132 0.740234 -0.212132
v -0.212132 0.140234 -0.212132
v 0.000000 0.740234 -0.300000
v 0.000000 0.140234 -0.300000
v 0.212132 0.740234 -0.212132
v 0.212132 0.140234 -0.212132
v 0.300000 0.740234 0.000000
v 0.300000 0.140234 0.000000
v 0.212132 0.740234 0.212132
v 0.212132 0.140234 0.212132
v 0.000000 0.640470 -1.100000
v -0.000000 4.640470 -0.022000
v 0.707107 0.640470 -0.707107
v 0.015556 4.640470 -0.015556
v 1.100000 0.640470 0.000000
v 0.022000 4.640470 -0.000000
v 0.707107 0.640470 0.707107
v 0.015556 4.640470 0.015556
v -0.000000 0.640470 1.100000
v -0.000000 4.640470 0.022000
v -0.707107 0.640470 0.707107
v -0.015556 4.640470 0.015556
v -1.100000 0.640470 -0.000000
v -0.022000 4.640470 -0.000000
v -0.707107 0.640470 -0.707107
v -0.015556 4.640470 -0.015556
v -0.000000 3.440470 -0.407000
v 0.261629 3.440470 -0.261629
v 0.407000 3.440470 0.000000
v 0.261629 3.440470 0.261629
v -0.000000 3.440470 0.407000
v -0.261630 3.440470 0.261629
v -0.407000 3.440470 -0.000000
v -0.261630 3.440470 -0.261629
v 0.372999 2.740469 -0.372999
v 0.484368 2.040470 -0.484368
v 0.595737 1.340470 -0.595737
v 0.580250 2.740469 0.000000
v 0.753500 2.040470 0.000000
v 0.926750 1.340469 0.000000
v 0.372999 2.740469 0.372999
v 0.484368 2.040470 0.484368
v 0.595737 1.340470 0.595737
v -0.000000 2.740469 0.580250
v -0.000000 2.040470 0.753500
v -0.000000 1.340469 0.926750
v -0.372999 2.740469 0.372999
v -0.484368 2.040470 0.484368
v -0.595738 1.340470 0.595737
v -0.580250 2.740469 -0.000000
v -0.753500 2.040470 -0.000000
v -0.926750 1.340469 -0.000000
v -0.372999 2.740469 -0.372999
v -0.484368 2.040470 -0.484368
v -0.595738 1.340470 -0.595737
v -0.000000 1.340469 -0.926750
v -0.000000 2.040470 -0.753500
v -0.000000 2.740469 -0.580250
v 0.000000 3.440470 -0.529100
v 0.340118 3.440470 -0.340118
v 0.529100 3.440470 0.000000
v 0.340118 3.440470 0.340118
v -0.000000 3.440470 0.529100
v -0.340118 3.440470 0.340118
v -0.529100 3.440470 -0.000000
v -0.340118 3.440470 -0.340118
v -0.000000 2.740469 -0.696300
v 0.447599 2.740469 -0.447599
v 0.696300 2.740469 0.000000
v 0.447599 2.740469 0.447599
v -0.000000 2.740469 0.696300
v -0.447599 2.740469 0.447599
v -0.696300 2.740469 -0.000000
v -0.447599 2.740469 -0.447599
v 0.532805 2.040470 -0.532805
v 0.828850 2.040470 0.000000
v 0.532805 2.040470 0.532805
v -0.000000 2.040470 0.828850
v -0.532805 2.040470 0.532805
v -0.828850 2.040470 -0.000000
v -0.532805 2.040470 -0.532805
v 0.000000 2.040470 -0.828850
v 0.714885 1.340470 -0.714885
v 1.112100 1.340469 0.000000
v 0.714885 1.340470 0.714885
v -0.000000 1.340469 1.112100
v -0.714885 1.340470 0.714885
v -1.112100 1.340469 -0.000000
v -0.714885 1.340470 -0.714885
v 0.000000 1.340469 -1.112100
v 0.777818 0.640470 -0.777818
v 1.210000 0.640470 0.000000
v 0.777818 0.640470 0.777818
v -0.000000 0.640470 1.210000
v -0.777818 0.640470 0.777817
v -1.210000 0.640470 -0.000000
v -0.777818 0.640470 -0.777817
v 0.000000 0.640470 -1.210000
v 0.000000 0.740234 0.300000
v 0.000000 0.140234 0.300000
vt 0.496841 0.678073
vt 0.496841 0.769344
vt 0.531769 0.769344
vt 0.531769 0.678073
vt 0.566697 0.769344
vt 0.566697 0.678073
vt 0.601625 0.769344
vt 0.322203 0.678073
vt 0.322203 0.769344
vt 0.357130 0.769344
vt 0.357130 0.678073
vt 0.392058 0.769344
vt 0.392058 0.678073
vt 0.426986 0.769344
vt 0.686224 0.702771
vt 0.601901 0.737699
vt 0.661526 0.762397
vt 0.426986 0.678073
vt 0.461914 0.769344
vt 0.461914 0.678073
vt 0.770823 0.737699
vt 0.686500 0.702771
vt 0.711197 0.762397
vt 0.344190 0.164476
vt 0.400678 0.166008
vt 0.403666 0.016249
vt 0.400749 0.015380
vt 0.398316 0.012919
vt 0.225668 0.109295
vt 0.290906 0.139273
vt 0.397862 0.008383
vt 0.403797 0.000138
vt 0.577058 0.115413
vt 0.648144 0.071810
vt 0.408817 0.008367
vt 0.409077 0.013127
vt 0.406680 0.015698
vt 0.457074 0.166337
vt 0.511118 0.142940
vt 0.307300 0.880749
vt 0.014765 0.797186
vt 0.119251 0.985235
vt 0.475532 0.314366
vt 0.459969 0.181990
vt 0.400315 0.187636
vt 0.553824 0.297191
vt 0.520841 0.165167
vt 0.641193 0.285738
vt 0.585735 0.134675
vt 0.739644 0.268292
vt 0.649752 0.103620
vt 0.155878 0.278199
vt 0.216174 0.128437
vt 0.152857 0.095041
vt 0.243122 0.292357
vt 0.280373 0.161203
vt 0.320972 0.311981
vt 0.340782 0.180063
vt 0.398306 0.311181
vt 0.298886 0.670064
vt 0.392908 0.677796
vt 0.394232 0.584233
vt 0.303004 0.563918
vt 0.394564 0.561177
vt 0.396077 0.457653
vt 0.309347 0.449044
vt 0.396245 0.446377
vt 0.398000 0.330840
vt 0.302198 0.581314
vt 0.208775 0.575712
vt 0.308771 0.457317
vt 0.220188 0.445380
vt 0.319337 0.326607
vt 0.238821 0.313076
vt 0.104266 0.661758
vt 0.203422 0.672485
vt 0.113741 0.548696
vt 0.210649 0.551938
vt 0.127599 0.428624
vt 0.221513 0.433633
vt 0.112929 0.568205
vt 0.023615 0.567395
vt 0.127029 0.438219
vt 0.038782 0.434729
vt 0.152746 0.296063
vt 0.066395 0.282933
vt 0.681602 0.669884
vt 0.785763 0.664004
vt 0.764752 0.577998
vt 0.675352 0.556778
vt 0.778010 0.555118
vt 0.753376 0.445216
vt 0.664972 0.436570
vt 0.759752 0.433439
vt 0.730178 0.293120
vt 0.675608 0.576270
vt 0.579731 0.581028
vt 0.665264 0.446157
vt 0.572110 0.450585
vt 0.643773 0.303625
vt 0.557469 0.317987
vt 0.487074 0.672701
vt 0.582335 0.677798
vt 0.485976 0.566550
vt 0.578543 0.557240
vt 0.482991 0.451615
vt 0.571135 0.438823
vt 0.486282 0.583950
vt 0.483321 0.459896
vt 0.476711 0.329022
vt 0.079761 0.692700
vt 0.202813 0.692700
vt 0.206992 0.678074
vt 0.307300 0.757696
vt 0.321927 0.884927
vt 0.242304 0.985235
vt 0.250431 0.999862
vt 0.115073 0.999862
vt 0.014765 0.920239
vt 0.000138 0.928366
vt 0.000138 0.793008
vt 0.071634 0.678073
vt 0.601625 0.678073
vt 0.686224 0.737699
vt 0.626598 0.762397
vt 0.626598 0.678073
vt 0.601901 0.702771
vt 0.661526 0.678073
vt 0.746125 0.678073
vt 0.711197 0.678073
vt 0.770823 0.702771
vt 0.746125 0.762397
vt 0.686500 0.737699
vt 0.155454 0.062983
vt 0.057613 0.257727
vt 0.000138 0.652916
vt 0.010986 0.544105
vt 0.032722 0.422744
vt 0.321926 0.749569
vn -0.3827 0.0000 0.9239
vn -0.9239 0.0000 0.3827
vn -0.9239 0.0000 -0.3827
vn -0.3827 0.0000 -0.9239
vn 0.3827 0.0000 -0.9239
vn 0.9239 0.0000 -0.3827
vn 0.0000 -1.0000 0.0000
vn 0.9239 0.0000 0.3827
vn 0.3827 0.0000 0.9239
vn 0.0000 1.0000 0.0000
vn 0.4556 0.3465 -0.8200
vn 0.8711 0.3332 -0.3608
vn 0.8200 0.3465 0.4556
vn 0.3608 0.3332 0.8711
vn -0.4556 0.3465 0.8200
vn -0.8711 0.3332 0.3608
vn -0.8200 0.3465 -0.4556
vn -0.3608 0.3332 -0.8711
vn -0.4568 0.3398 -0.8221
vn -0.8221 0.3398 -0.4568
vn -0.8221 0.3398 0.4568
vn -0.4568 0.3398 0.8221
vn 0.4568 0.3398 0.8221
vn 0.8221 0.3398 0.4568
vn 0.8221 0.3398 -0.4568
vn 0.4568 0.3398 -0.8221
vn 0.4579 0.3335 -0.8241
vn 0.4433 0.4087 -0.7978
vn 0.4639 0.2965 -0.8348
vn 0.8241 0.3335 -0.4579
vn 0.7978 0.4087 -0.4433
vn 0.8348 0.2965 -0.4639
vn 0.8241 0.3335 0.4579
vn 0.7978 0.4087 0.4433
vn 0.8348 0.2965 0.4639
vn 0.4579 0.3335 0.8241
vn 0.4433 0.4087 0.7978
vn 0.4639 0.2965 0.8348
vn -0.4579 0.3335 0.8241
vn -0.4433 0.4087 0.7978
vn -0.4639 0.2965 0.8348
vn -0.8241 0.3335 0.4579
vn -0.7978 0.4087 0.4433
vn -0.8348 0.2965 0.4639
vn -0.8241 0.3335 -0.4579
vn -0.7978 0.4087 -0.4433
vn -0.8348 0.2965 -0.4639
vn -0.4579 0.3335 -0.8241
vn -0.4433 0.4087 -0.7978
vn -0.4639 0.2965 -0.8348
vn 0.3608 0.3332 -0.8711
vn 0.8200 0.3465 -0.4556
vn 0.8711 0.3332 0.3608
vn 0.4556 0.3465 0.8200
vn -0.3608 0.3332 0.8711
vn -0.8200 0.3465 0.4556
vn -0.8711 0.3332 -0.3608
vn -0.4556 0.3465 -0.8200
s off
f 2/1/1 1/2/1 3/3/1
f 4/4/2 3/3/2 5/5/2
f 6/6/3 5/5/3 7/7/3
f 8/8/4 7/9/4 9/10/4
f 10/11/5 9/10/5 11/12/5
f 12/13/6 11/12/6 13/14/6
f 6/15/7 14/16/7 2/17/7
f 14/18/8 13/14/8 15/19/8
f 16/20/9 15/19/9 1/2/9
f 7/21/10 15/22/10 11/23/10
f 66/24/11 65/25/11 18/26/11
f 66/24/12 20/27/12 22/28/12
f 68/29/13 67/30/13 22/28/13
f 68/29/14 24/31/14 26/32/14
f 70/33/15 69/34/15 26/32/15
f 70/33/16 28/35/16 30/36/16
f 32/37/10 26/32/10 18/26/10
f 72/38/17 71/39/17 30/36/17
f 72/38/18 32/37/18 18/26/18
f 27/40/7 19/41/7 23/42/7
f 80/43/19 40/44/19 33/45/19
f 80/43/20 79/46/20 39/47/20
f 78/48/21 38/49/21 39/47/21
f 78/48/22 77/50/22 37/51/22
f 76/52/23 36/53/23 37/54/23
f 76/52/24 75/55/24 35/56/24
f 74/57/25 34/58/25 35/56/25
f 74/57/26 73/59/26 33/45/26
f 97/60/27 104/61/27 62/62/27
f 89/63/28 96/64/28 63/65/28
f 81/66/29 88/67/29 64/68/29
f 97/60/30 43/69/30 46/70/30
f 89/63/31 42/71/31 45/72/31
f 81/66/32 41/73/32 44/74/32
f 99/75/33 98/76/33 46/70/33
f 91/77/34 90/78/34 45/72/34
f 83/79/35 82/80/35 44/74/35
f 99/75/36 49/81/36 52/82/36
f 91/77/37 48/83/37 51/84/37
f 83/79/38 47/85/38 50/86/38
f 101/87/39 100/88/39 52/89/39
f 93/90/40 92/91/40 51/92/40
f 85/93/41 84/94/41 50/95/41
f 101/87/42 55/96/42 58/97/42
f 93/90/43 54/98/43 57/99/43
f 85/93/44 53/100/44 56/101/44
f 103/102/45 102/103/45 58/97/45
f 95/104/46 94/105/46 57/99/46
f 87/106/47 86/107/47 56/101/47
f 103/102/48 61/108/48 62/62/48
f 95/104/49 60/109/49 63/65/49
f 87/106/50 59/110/50 64/68/50
f 33/45/7 40/44/7 72/38/7
f 39/47/7 71/39/7 72/38/7
f 39/47/7 38/49/7 70/33/7
f 37/51/7 69/34/7 70/33/7
f 37/54/7 36/53/7 68/29/7
f 35/56/7 67/30/7 68/29/7
f 35/56/7 34/58/7 66/24/7
f 33/45/7 65/25/7 66/24/7
f 64/68/7 73/59/7 74/57/7
f 44/74/7 41/73/7 74/57/7
f 44/74/7 75/55/7 76/52/7
f 50/86/7 47/85/7 76/52/7
f 50/95/7 77/50/7 78/48/7
f 56/101/7 53/100/7 78/48/7
f 56/101/7 79/46/7 80/43/7
f 64/68/7 59/110/7 80/43/7
f 63/65/7 60/109/7 87/106/7
f 57/99/7 86/107/7 87/106/7
f 57/99/7 54/98/7 85/93/7
f 51/92/7 84/94/7 85/93/7
f 51/84/7 48/83/7 83/79/7
f 45/72/7 82/80/7 83/79/7
f 45/72/7 42/71/7 81/66/7
f 63/65/7 88/67/7 81/66/7
f 62/62/7 61/108/7 95/104/7
f 58/97/7 94/105/7 95/104/7
f 58/97/7 55/96/7 93/90/7
f 52/89/7 92/91/7 93/90/7
f 52/82/7 49/81/7 91/77/7
f 46/70/7 90/78/7 91/77/7
f 46/70/7 43/69/7 89/63/7
f 62/62/7 96/64/7 89/63/7
f 17/111/7 31/112/7 103/113/7
f 29/114/10 31/112/10 103/113/10
f 29/114/7 27/40/7 101/115/7
f 25/116/7 100/117/7 101/115/7
f 25/116/7 23/42/7 99/118/7
f 21/119/7 98/120/7 99/118/7
f 21/119/7 19/41/7 97/121/7
f 17/111/7 104/122/7 97/121/7
f 2/1/1 3/3/1 4/4/1
f 4/4/2 5/5/2 6/6/2
f 6/6/3 7/7/3 8/123/3
f 8/8/4 9/10/4 10/11/4
f 10/11/5 11/12/5 12/13/5
f 12/13/6 13/14/6 14/18/6
f 6/15/7 2/17/7 4/124/7
f 2/17/7 14/16/7 16/125/7
f 14/16/7 10/126/7 12/127/7
f 10/126/7 14/16/7 8/128/7
f 8/128/7 14/16/7 6/15/7
f 14/18/8 15/19/8 16/20/8
f 16/20/9 1/2/9 2/1/9
f 15/22/10 3/129/10 1/130/10
f 3/129/10 7/21/10 5/131/10
f 7/21/10 11/23/10 9/132/10
f 11/23/10 15/22/10 13/133/10
f 15/22/10 7/21/10 3/129/10
f 66/24/51 18/26/51 20/27/51
f 66/24/52 22/28/52 67/30/52
f 68/29/53 22/28/53 24/31/53
f 68/29/54 26/32/54 69/134/54
f 70/33/55 26/32/55 28/35/55
f 70/33/56 30/36/56 71/39/56
f 18/26/10 22/28/10 20/27/10
f 22/28/10 18/26/10 24/31/10
f 24/31/10 18/26/10 26/32/10
f 26/32/10 30/36/10 28/35/10
f 30/36/10 26/32/10 32/37/10
f 72/38/57 30/36/57 32/37/57
f 72/38/58 18/26/58 65/25/58
f 19/41/7 31/112/7 17/111/7
f 31/112/7 27/40/7 29/114/7
f 27/40/7 23/42/7 25/116/7
f 23/42/7 19/41/7 21/119/7
f 19/41/7 27/40/7 31/112/7
f 80/43/19 33/45/19 73/59/19
f 80/43/20 39/47/20 40/44/20
f 78/48/21 39/47/21 79/46/21
f 78/48/22 37/51/22 38/49/22
f 76/52/23 37/54/23 77/135/23
f 76/52/24 35/56/24 36/53/24
f 74/57/25 35/56/25 75/55/25
f 74/57/26 33/45/26 34/58/26
f 97/60/27 62/62/27 43/69/27
f 89/63/28 63/65/28 42/71/28
f 81/66/29 64/68/29 41/73/29
f 97/60/30 46/70/30 98/76/30
f 89/63/31 45/72/31 90/78/31
f 81/66/32 44/74/32 82/80/32
f 99/75/33 46/70/33 49/81/33
f 91/77/34 45/72/34 48/83/34
f 83/79/35 44/74/35 47/85/35
f 99/75/36 52/82/36 100/136/36
f 91/77/37 51/84/37 92/137/37
f 83/79/38 50/86/38 84/138/38
f 101/87/39 52/89/39 55/96/39
f 93/90/40 51/92/40 54/98/40
f 85/93/41 50/95/41 53/100/41
f 101/87/42 58/97/42 102/103/42
f 93/90/43 57/99/43 94/105/43
f 85/93/44 56/101/44 86/107/44
f 103/102/45 58/97/45 61/108/45
f 95/104/46 57/99/46 60/109/46
f 87/106/47 56/101/47 59/110/47
f 103/102/48 62/62/48 104/61/48
f 95/104/49 63/65/49 96/64/49
f 87/106/50 64/68/50 88/67/50
f 33/45/7 72/38/7 65/25/7
f 39/47/7 72/38/7 40/44/7
f 39/47/7 70/33/7 71/39/7
f 37/51/7 70/33/7 38/49/7
f 37/54/7 68/29/7 69/134/7
f 35/56/7 68/29/7 36/53/7
f 35/56/7 66/24/7 67/30/7
f 33/45/7 66/24/7 34/58/7
f 64/68/7 74/57/7 41/73/7
f 44/74/7 74/57/7 75/55/7
f 44/74/7 76/52/7 47/85/7
f 50/86/7 76/52/7 77/135/7
f 50/95/7 78/48/7 53/100/7
f 56/101/7 78/48/7 79/46/7
f 56/101/7 80/43/7 59/110/7
f 64/68/7 80/43/7 73/59/7
f 63/65/7 87/106/7 88/67/7
f 57/99/7 87/106/7 60/109/7
f 57/99/7 85/93/7 86/107/7
f 51/92/7 85/93/7 54/98/7
f 51/84/7 83/79/7 84/138/7
f 45/72/7 83/79/7 48/83/7
f 45/72/7 81/66/7 82/80/7
f 63/65/7 81/66/7 42/71/7
f 62/62/7 95/104/7 96/64/7
f 58/97/7 95/104/7 61/108/7
f 58/97/7 93/90/7 94/105/7
f 52/89/7 93/90/7 55/96/7
f 52/82/7 91/77/7 92/137/7
f 46/70/7 91/77/7 49/81/7
f 46/70/7 89/63/7 90/78/7
f 62/62/7 89/63/7 43/69/7
f 17/111/7 103/113/7 104/122/7
f 29/114/10 103/113/10 102/139/10
f 29/114/7 101/115/7 102/139/7
f 25/116/7 101/115/7 27/40/7
f 25/116/7 99/118/7 100/117/7
f 21/119/7 99/118/7 23/42/7
f 21/119/7 97/121/7 98/120/7
f 17/111/7 97/121/7 19/41/7
l 105 106
