# Blender v2.79 (sub 0) OBJ File: 'lowpoly.blend'
# www.blender.org
o Cylinder_Cylinder.002
v 0.000000 0.000000 -1.000000
v -0.000000 4.000000 -0.100000
v 0.707107 0.000000 -0.707107
v 0.070711 4.000000 -0.070711
v 1.000000 0.000000 0.000000
v 0.100000 4.000000 0.000000
v 0.707107 0.000000 0.707107
v 0.070711 4.000000 0.070711
v -0.000000 0.000000 1.000000
v -0.000000 4.000000 0.100000
v -0.707107 0.000000 0.707107
v -0.070711 4.000000 0.070711
v -1.000000 0.000000 -0.000000
v -0.100000 4.000000 -0.000000
v -0.707107 0.000000 -0.707107
v -0.070711 4.000000 -0.070711
vt 0.000000 0.000000
vt 0.000000 0.000000
vt 0.000000 0.000000
vt 0.000000 0.000000
vt 0.000000 0.000000
vt 0.000000 0.000000
vt 0.000000 0.000000
vt 0.000000 0.000000
vt 0.000000 0.000000
vt 0.000000 0.000000
vt 0.000000 0.000000
vt 0.000000 0.000000
vt 0.707065 0.000100
vt 0.999900 0.292935
vt 0.000100 0.707065
vt 0.000000 0.000000
vt 0.000000 0.000000
vt 0.000000 0.000000
vt 0.000000 0.000000
vt 0.999900 0.707065
vt 0.707066 0.999900
vt 0.292935 0.999900
vt 0.000100 0.292935
vt 0.292935 0.000100
vn 0.3747 0.2035 -0.9045
vn 0.9045 0.2035 -0.3747
vn 0.9045 0.2035 0.3747
vn 0.3747 0.2035 0.9045
vn -0.3747 0.2035 0.9045
vn -0.9045 0.2035 0.3747
vn 0.0000 1.0000 0.0000
vn -0.9045 0.2035 -0.3747
vn -0.3747 0.2035 -0.9045
vn 0.0000 -1.0000 0.0000
s off
f 2/1/1 3/2/1 1/3/1
f 3/2/2 6/4/2 5/5/2
f 6/4/3 7/6/3 5/5/3
f 8/7/4 9/8/4 7/6/4
f 10/9/5 11/10/5 9/8/5
f 12/11/6 13/12/6 11/10/6
f 8/13/7 6/14/7 14/15/7
f 14/16/8 15/17/8 13/12/8
f 16/18/9 1/3/9 15/17/9
f 7/6/10 11/10/10 15/17/10
f 2/1/1 4/19/1 3/2/1
f 3/2/2 4/19/2 6/4/2
f 6/4/3 8/7/3 7/6/3
f 8/7/4 10/9/4 9/8/4
f 10/9/5 12/11/5 11/10/5
f 12/11/6 14/16/6 13/12/6
f 6/14/7 4/20/7 14/15/7
f 4/20/7 2/21/7 14/15/7
f 2/21/7 16/22/7 14/15/7
f 14/15/7 12/23/7 10/24/7
f 10/24/7 8/13/7 14/15/7
f 14/16/8 16/18/8 15/17/8
f 16/18/9 2/1/9 1/3/9
f 15/17/10 1/3/10 3/2/10
f 3/2/10 5/5/10 7/6/10
f 7/6/10 9/8/10 11/10/10
f 11/10/10 13/12/10 15/17/10
f 15/17/10 3/2/10 7/6/10
o trunk_Cylinder.001
v 0.000000 -0.379831 -0.533534
v 0.000000 -3.041583 -0.533534
v 0.377266 -0.379831 -0.377266
v 0.377266 -3.041583 -0.377266
v 0.533534 -0.379831 0.000000
v 0.533534 -3.041583 0.000000
v 0.377266 -0.379831 0.377266
v 0.377266 -3.041583 0.377266
v -0.000000 -0.379831 0.533534
v -0.000000 -3.041583 0.533534
v -0.377266 -0.379831 0.377266
v -0.377266 -3.041583 0.377266
v -0.533534 -0.379831 -0.000000
v -0.533534 -3.041583 -0.000000
v -0.377266 -0.379831 -0.377266
v -0.377266 -3.041583 -0.377266
v -0.000000 -1.710707 -0.462305
v 0.326899 -1.710707 -0.326899
v 0.462305 -1.710707 0.000000
v 0.326899 -1.710707 0.326899
v -0.000000 -1.710707 0.462305
v -0.326899 -1.710707 0.326899
v -0.462305 -1.710707 -0.000000
v -0.326899 -1.710707 -0.326899
vt 1.000000 0.000000
vt 0.000000 0.000000
vt 0.000000 1.000000
vt 1.000000 0.000000
vt 0.000000 0.000000
vt 0.000000 1.000000
vt 1.000000 0.000000
vt 0.000000 0.000000
vt 0.000000 1.000000
vt 1.000000 0.000000
vt 0.000000 0.000000
vt 0.000000 1.000000
vt 1.000000 0.000000
vt 0.000000 0.000000
vt 0.000000 1.000000
vt 1.000000 0.000000
vt 0.000000 0.000000
vt 0.000000 1.000000
vt 0.146447 0.853553
vt 0.853553 0.146447
vt 0.853553 0.853553
vt 1.000000 0.000000
vt 0.000000 0.000000
vt 0.000000 1.000000
vt 1.000000 0.000000
vt 0.000000 0.000000
vt 0.000000 1.000000
vt 0.853553 0.146447
vt 0.146447 0.853553
vt 0.146447 0.146447
vt 0.000000 0.000000
vt 0.000000 1.000000
vt 1.000000 1.000000
vt 1.000000 0.000000
vt 0.000000 0.000000
vt 0.000000 1.000000
vt 1.000000 0.000000
vt 0.000000 0.000000
vt 0.000000 1.000000
vt 1.000000 0.000000
vt 0.000000 0.000000
vt 0.000000 1.000000
vt 0.000000 0.000000
vt 0.000000 1.000000
vt 1.000000 1.000000
vt 1.000000 0.000000
vt 0.000000 0.000000
vt 0.000000 1.000000
vt 1.000000 0.000000
vt 0.000000 0.000000
vt 0.000000 1.000000
vt 1.000000 0.000000
vt 0.000000 0.000000
vt 0.000000 1.000000
vt 1.000000 1.000000
vt 1.000000 1.000000
vt 1.000000 1.000000
vt 1.000000 1.000000
vt 1.000000 1.000000
vt 1.000000 1.000000
vt 0.500000 1.000000
vt 1.000000 0.500000
vt 0.146447 0.146447
vt 0.500000 0.000000
vt 0.000000 0.500000
vt 1.000000 1.000000
vt 1.000000 1.000000
vt 0.853553 0.853553
vt 0.500000 1.000000
vt 1.000000 0.500000
vt 0.500000 0.000000
vt 0.000000 0.500000
vt 1.000000 0.000000
vt 1.000000 1.000000
vt 1.000000 1.000000
vt 1.000000 1.000000
vt 1.000000 0.000000
vt 1.000000 1.000000
vt 1.000000 1.000000
vt 1.000000 1.000000
vn 0.3822 0.0494 -0.9228
vn 0.9228 0.0494 -0.3822
vn 0.9228 0.0494 0.3822
vn 0.3822 0.0494 0.9228
vn -0.3822 0.0494 0.9228
vn -0.9228 0.0494 0.3822
vn 0.0000 -1.0000 0.0000
vn -0.9228 0.0494 -0.3822
vn -0.3822 0.0494 -0.9228
vn 0.0000 1.0000 0.0000
vn -0.3822 -0.0494 -0.9228
vn -0.9228 -0.0494 -0.3822
vn -0.9228 -0.0494 0.3822
vn -0.3822 -0.0494 0.9228
vn 0.3822 -0.0494 0.9228
vn 0.9228 -0.0494 0.3822
vn 0.9228 -0.0494 -0.3822
vn 0.3822 -0.0494 -0.9228
s off
f 18/25/11 33/26/11 34/27/11
f 20/28/12 34/29/12 35/30/12
f 22/31/13 35/32/13 36/33/13
f 24/34/14 36/35/14 37/36/14
f 26/37/15 37/38/15 38/39/15
f 28/40/16 38/41/16 39/42/16
f 22/43/17 30/44/17 18/45/17
f 30/46/18 39/47/18 40/48/18
f 32/49/19 40/50/19 33/51/19
f 23/52/20 31/53/20 27/54/20
f 31/55/21 17/56/21 33/57/21
f 39/58/22 29/59/22 31/60/22
f 38/61/23 27/62/23 29/63/23
f 37/64/24 25/65/24 27/66/24
f 23/67/25 25/68/25 37/69/25
f 35/70/26 21/71/26 23/72/26
f 34/73/27 19/74/27 21/75/27
f 33/76/28 17/77/28 19/78/28
f 18/25/11 34/27/11 20/79/11
f 20/28/12 35/30/12 22/80/12
f 22/31/13 36/33/13 24/81/13
f 24/34/14 37/36/14 26/82/14
f 26/37/15 38/39/15 28/83/15
f 28/40/16 39/42/16 30/84/16
f 22/43/17 18/45/17 20/85/17
f 18/45/17 30/44/17 32/86/17
f 30/44/17 26/87/17 28/88/17
f 26/87/17 30/44/17 24/89/17
f 24/89/17 30/44/17 22/43/17
f 30/46/18 40/48/18 32/90/18
f 32/49/19 33/51/19 18/91/19
f 31/53/20 19/92/20 17/93/20
f 19/92/20 23/52/20 21/94/20
f 23/52/20 27/54/20 25/95/20
f 27/54/20 31/53/20 29/96/20
f 31/53/20 23/52/20 19/92/20
f 31/55/21 33/57/21 40/97/21
f 39/58/22 31/60/22 40/98/22
f 38/61/23 29/63/23 39/99/23
f 37/64/24 27/66/24 38/100/24
f 23/67/25 37/69/25 36/101/25
f 35/70/26 23/72/26 36/102/26
f 34/73/27 21/75/27 35/103/27
f 33/76/28 19/78/28 34/104/28
o leaves_Cylinder
v 0.000000 -1.185281 -1.842876
v -0.000000 6.232841 -0.049178
v 1.159201 -1.000000 -1.159201
v 0.034774 6.232841 -0.034774
v 1.842876 -1.185281 0.000000
v 0.049178 6.232841 0.000000
v 1.159201 -1.000000 1.159201
v 0.034774 6.232841 0.034774
v -0.000000 -1.185281 1.842876
v -0.000000 6.232841 0.049178
v -1.159202 -1.000000 1.159201
v -0.034774 6.232841 0.034774
v -1.842876 -1.185281 -0.000000
v -0.049178 6.232841 -0.000000
v -1.159202 -1.000000 -1.159201
v -0.034774 6.232841 -0.034774
v -0.000000 1.850622 -1.127241
v 0.709055 1.891846 -0.709055
v 1.127241 1.850622 0.000000
v 0.709055 1.891846 0.709055
v -0.000000 1.850622 1.127241
v -0.709055 1.891846 0.709055
v -1.127241 1.850622 -0.000000
v -0.709055 1.891846 -0.709055
v 0.719586 1.878968 -0.719586
v 1.147737 0.439378 -1.147737
v 0.935384 0.465743 -0.935384
v 1.349097 -1.026365 -1.349097
v 1.143984 1.837102 0.000000
v 1.824649 0.325799 0.000000
v 1.487055 0.353478 0.000000
v 2.144768 -1.212960 0.000000
v 0.719586 1.878968 0.719586
v 1.147737 0.439378 1.147737
v 0.935384 0.465743 0.935384
v 1.349097 -1.026365 1.349097
v -0.000000 1.837102 1.143984
v -0.000000 0.325799 1.824649
v -0.000000 0.353478 1.487055
v -0.000000 -1.212960 2.144768
v -0.719586 1.878968 0.719586
v -1.147737 0.439378 1.147736
v -0.935384 0.465743 0.935384
v -1.349097 -1.026365 1.349096
v -1.143984 1.837102 -0.000000
v -1.824649 0.325799 -0.000000
v -1.487055 0.353478 -0.000000
v -2.144768 -1.212960 -0.000000
v -0.719586 1.878968 -0.719586
v -1.147737 0.439378 -1.147736
v -0.935384 0.465743 -0.935384
v -1.349097 -1.026365 -1.349096
v -0.000000 -1.212960 -2.144768
v -0.000000 0.353478 -1.487055
v 0.000000 0.325799 -1.824649
v -0.000000 1.837102 -1.143984
v -0.000000 3.173543 -0.834948
v -0.000000 4.100808 -0.620528
v -0.000000 5.028073 -0.406109
v 0.255450 4.918523 -0.255450
v 0.390323 4.035257 -0.390323
v 0.525197 3.151992 -0.525197
v 0.406109 5.028073 0.000000
v 0.620528 4.100808 0.000000
v 0.834948 3.173542 0.000000
v 0.255450 4.918523 0.255450
v 0.390323 4.035257 0.390323
v 0.525197 3.151992 0.525197
v -0.000000 5.028073 0.406109
v -0.000000 4.100808 0.620528
v -0.000000 3.173542 0.834948
v -0.255450 4.918523 0.255450
v -0.390323 4.035257 0.390323
v -0.525197 3.151992 0.525197
v -0.406109 5.028073 -0.000000
v -0.620528 4.100808 -0.000000
v -0.834948 3.173542 -0.000000
v -0.255450 4.918523 -0.255450
v -0.390323 4.035257 -0.390323
v -0.525197 3.151992 -0.525197
v -0.000000 5.046732 -0.669363
v 0.421041 4.936296 -0.421041
v 0.669363 5.046732 0.000000
v 0.421041 4.936296 0.421041
v -0.000000 5.046732 0.669363
v -0.421041 4.936296 0.421041
v -0.669363 5.046732 -0.000000
v -0.421041 4.936296 -0.421041
v -0.000000 4.073130 -0.780618
v 0.491023 4.008892 -0.491023
v 0.780618 4.073129 0.000000
v 0.491023 4.008892 0.491023
v -0.000000 4.073129 0.780618
v -0.491023 4.008892 0.491023
v -0.780618 4.073129 -0.000000
v -0.491023 4.008892 -0.491023
v -0.000000 3.145864 -1.022781
v 0.643347 3.125627 -0.643347
v 1.022781 3.145864 0.000000
v 0.643347 3.125627 0.643347
v -0.000000 3.145864 1.022781
v -0.643347 3.125627 0.643347
v -1.022781 3.145864 -0.000000
v -0.643347 3.125627 -0.643347
v -0.837860 1.832366 -0.837860
v -0.000000 1.788179 -1.332014
v -1.332014 1.788179 -0.000000
v -0.837860 1.832366 0.837860
v -0.000000 1.788179 1.332014
v 0.837860 1.832366 0.837860
v 1.332014 1.788179 0.000000
v 0.837860 1.832366 -0.837860
vt 0.000000 0.000000
vt 0.000000 0.000000
vt 0.000000 0.000000
vt 0.000000 0.000000
vt 0.000000 0.000000
vt 0.000000 0.000000
vt 0.000000 0.000000
vt 0.000000 0.000000
vt 0.000000 0.000000
vt 0.000000 0.000000
vt 0.292935 0.999900
vt 0.000100 0.292935
vt 0.707065 0.000100
vt 0.000000 0.000000
vt 0.000000 0.000000
vt 0.000000 0.000000
vt 0.000000 0.000000
vt 0.000000 0.000000
vt 0.000000 0.000000
vt 0.000000 0.000000
vt 0.000000 0.000000
vt 0.000000 0.000000
vt 0.000000 0.000000
vt 0.000000 0.000000
vt 0.000000 0.000000
vt 0.000000 0.000000
vt 0.000000 0.000000
vt 0.000000 0.000000
vt 0.000000 0.000000
vt 0.000000 0.000000
vt 0.000000 0.000000
vt 0.000000 0.000000
vt 0.000000 0.000000
vt 0.000000 0.000000
vt 0.000000 0.000000
vt 0.000000 0.000000
vt 0.000000 0.000000
vt 0.000000 0.000000
vt 0.000000 0.000000
vt 0.000000 0.000000
vt 0.000000 0.000000
vt 0.000000 0.000000
vt 0.000000 0.000000
vt 0.000000 0.000000
vt 0.000000 0.000000
vt 0.000000 0.000000
vt 0.000000 0.000000
vt 0.000000 0.000000
vt 0.000000 0.000000
vt 0.000000 0.000000
vt 0.000000 0.000000
vt 0.000000 0.000000
vt 0.000000 0.000000
vt 0.000000 0.000000
vt 0.000000 0.000000
vt 0.000000 0.000000
vt 0.000000 0.000000
vt 0.000000 0.000000
vt 0.000000 0.000000
vt 0.000000 0.000000
vt 0.000000 0.000000
vt 0.000000 0.000000
vt 0.000000 0.000000
vt 0.000000 0.000000
vt 0.000000 0.000000
vt 0.000000 0.000000
vt 0.000000 0.000000
vt 0.000000 0.000000
vt 0.000000 0.000000
vt 0.000000 0.000000
vt 0.000000 0.000000
vt 0.000000 0.000000
vt 0.000000 0.000000
vt 0.000000 0.000000
vt 0.000000 0.000000
vt 0.000000 0.000000
vt 0.000000 0.000000
vt 0.000000 0.000000
vt 0.000000 0.000000
vt 0.000000 0.000000
vt 0.000000 0.000000
vt 0.000000 0.000000
vt 0.000000 0.000000
vt 0.000000 0.000000
vt 0.000000 0.000000
vt 0.000000 0.000000
vt 0.000000 0.000000
vt 0.000000 0.000000
vt 0.000000 0.000000
vt 0.000000 0.000000
vt 0.000000 0.000000
vt 0.000000 0.000000
vt 0.000000 0.000000
vt 0.000000 0.000000
vt 0.000000 0.000000
vt 0.000000 0.000000
vt 0.000000 0.000000
vt 0.000000 0.000000
vt 0.000000 0.000000
vt 0.000000 0.000000
vt 0.000000 0.000000
vt 0.000000 0.000000
vt 0.000000 0.000000
vt 0.000000 0.000000
vt 0.000000 0.000000
vt 0.000000 0.000000
vt 0.000000 0.000000
vt 0.000000 0.000000
vt 0.000000 0.000000
vt 0.000000 0.000000
vt 0.000000 0.000000
vt 0.999900 0.292934
vt 0.999900 0.707065
vt 0.707066 0.999900
vt 0.000100 0.707066
vt 0.292934 0.000100
vt 0.000000 0.000000
vt 0.000000 0.000000
vt 0.000000 0.000000
vt 0.000000 0.000000
vn 0.5417 0.3841 -0.7477
vn 0.7477 0.3841 -0.5417
vn 0.7477 0.3841 0.5417
vn 0.5417 0.3841 0.7477
vn -0.5417 0.3841 0.7477
vn -0.7477 0.3841 0.5417
vn 0.0000 1.0000 0.0000
vn -0.7477 0.3841 -0.5417
vn -0.5417 0.3841 -0.7477
vn 0.0000 -1.0000 0.0000
vn -0.3093 0.7399 -0.5974
vn -0.5974 0.7399 -0.3093
vn -0.5974 0.7399 0.3093
vn -0.3093 0.7399 0.5974
vn 0.3093 0.7399 0.5974
vn 0.5974 0.7399 0.3093
vn 0.5974 0.7399 -0.3093
vn 0.3093 0.7399 -0.5974
vn 0.0481 -0.9817 0.1844
vn 0.4402 0.3476 -0.8279
vn 0.0291 -0.9880 0.1517
vn 0.4451 0.3677 -0.8165
vn -0.1844 -0.9817 -0.0481
vn 0.8279 0.3476 -0.4402
vn -0.1517 -0.9880 -0.0291
vn 0.8165 0.3677 -0.4451
vn -0.1844 -0.9817 0.0481
vn 0.8279 0.3476 0.4402
vn -0.1517 -0.9880 0.0291
vn 0.8165 0.3677 0.4451
vn 0.0481 -0.9817 -0.1844
vn 0.4402 0.3476 0.8279
vn 0.0291 -0.9880 -0.1517
vn 0.4451 0.3677 0.8165
vn -0.0481 -0.9817 -0.1844
vn -0.4402 0.3476 0.8279
vn -0.0291 -0.9880 -0.1517
vn -0.4451 0.3677 0.8165
vn 0.1844 -0.9817 0.0481
vn -0.8279 0.3476 0.4402
vn 0.1517 -0.9880 0.0291
vn -0.8165 0.3677 0.4451
vn 0.1844 -0.9817 -0.0481
vn -0.8279 0.3476 -0.4402
vn 0.1517 -0.9880 -0.0291
vn -0.8165 0.3677 -0.4451
vn -0.0481 -0.9817 0.1844
vn -0.4402 0.3476 -0.8279
vn -0.0291 -0.9880 0.1517
vn -0.4451 0.3677 -0.8165
vn -0.4733 0.2975 -0.8291
vn -0.4829 0.3568 -0.7997
vn -0.5106 0.3371 -0.7910
vn -0.8291 0.2975 -0.4733
vn -0.7997 0.3568 -0.4829
vn -0.7910 0.3371 -0.5106
vn -0.8291 0.2975 0.4733
vn -0.7997 0.3568 0.4829
vn -0.7910 0.3371 0.5106
vn -0.4733 0.2975 0.8291
vn -0.4829 0.3568 0.7997
vn -0.5106 0.3371 0.7910
vn 0.4733 0.2975 0.8291
vn 0.4829 0.3568 0.7997
vn 0.5106 0.3371 0.7910
vn 0.8291 0.2975 0.4733
vn 0.7997 0.3568 0.4829
vn 0.7910 0.3371 0.5106
vn 0.8291 0.2975 -0.4733
vn 0.7997 0.3568 -0.4829
vn 0.7910 0.3371 -0.5106
vn 0.4733 0.2975 -0.8291
vn 0.4829 0.3568 -0.7997
vn 0.5106 0.3371 -0.7910
vn 0.2129 -0.9258 -0.3123
vn -0.3123 -0.9258 0.2129
vn -0.3123 -0.9258 -0.2129
vn 0.2129 -0.9258 0.3123
vn -0.2129 -0.9258 0.3123
vn 0.3123 -0.9258 -0.2129
vn 0.3123 -0.9258 0.2129
vn -0.2129 -0.9258 -0.3123
vn -0.1984 -0.9784 0.0578
vn -0.0578 -0.9784 0.1984
vn -0.0578 -0.9784 -0.1984
vn -0.1984 -0.9784 -0.0578
vn 0.1984 -0.9784 -0.0578
vn 0.0578 -0.9784 -0.1984
vn 0.0578 -0.9784 0.1984
vn 0.1984 -0.9784 0.0578
vn -0.1073 -0.9878 0.1132
vn -0.1132 -0.9878 0.1073
vn -0.1132 -0.9878 -0.1073
vn -0.1073 -0.9878 -0.1132
vn 0.1073 -0.9878 -0.1132
vn 0.1132 -0.9878 -0.1073
vn 0.1132 -0.9878 0.1073
vn 0.1073 -0.9878 0.1132
vn 0.3446 0.4350 -0.8319
vn 0.8319 0.4350 -0.3446
vn 0.8319 0.4350 0.3446
vn 0.3446 0.4350 0.8319
vn -0.3446 0.4350 0.8319
vn -0.8319 0.4350 0.3446
vn -0.8319 0.4350 -0.3446
vn -0.3446 0.4350 -0.8319
vn 0.0000 -0.9652 0.2616
vn -0.2616 -0.9652 0.0000
vn 0.0000 -0.9652 -0.2616
vn 0.2616 -0.9652 0.0000
vn -0.3089 0.7406 -0.5967
vn -0.5967 0.7406 -0.3089
vn -0.5967 0.7406 0.3089
vn -0.3089 0.7406 0.5967
vn 0.3089 0.7406 0.5967
vn 0.5967 0.7406 0.3089
vn 0.5967 0.7406 -0.3089
vn 0.3089 0.7406 -0.5967
vn 0.0836 -0.9923 0.0910
vn 0.4439 0.3516 -0.8242
vn 0.0504 -0.9954 0.0816
vn 0.4545 0.3754 -0.8077
vn -0.0910 -0.9923 -0.0836
vn 0.8242 0.3516 -0.4439
vn -0.0816 -0.9954 -0.0504
vn 0.8077 0.3754 -0.4545
vn -0.0910 -0.9923 0.0836
vn 0.8242 0.3516 0.4439
vn -0.0816 -0.9954 0.0504
vn 0.8077 0.3754 0.4545
vn 0.0836 -0.9923 -0.0910
vn 0.4439 0.3516 0.8242
vn 0.0504 -0.9954 -0.0816
vn 0.4545 0.3754 0.8077
vn -0.0836 -0.9923 -0.0910
vn -0.4439 0.3516 0.8242
vn -0.0504 -0.9954 -0.0816
vn -0.4545 0.3754 0.8077
vn 0.0910 -0.9923 0.0836
vn -0.8242 0.3516 0.4439
vn 0.0816 -0.9954 0.0504
vn -0.8077 0.3754 0.4545
vn 0.0910 -0.9923 -0.0836
vn -0.8242 0.3516 -0.4439
vn 0.0816 -0.9954 -0.0504
vn -0.8077 0.3754 -0.4545
vn -0.0836 -0.9923 0.0910
vn -0.4439 0.3516 -0.8242
vn -0.0504 -0.9954 0.0816
vn -0.4545 0.3754 -0.8077
vn -0.4925 0.3094 -0.8135
vn -0.5200 0.3316 -0.7872
vn -0.5766 0.2983 -0.7607
vn -0.8135 0.3094 -0.4925
vn -0.7872 0.3316 -0.5200
vn -0.7607 0.2983 -0.5766
vn -0.8135 0.3094 0.4925
vn -0.7872 0.3316 0.5200
vn -0.7607 0.2983 0.5766
vn -0.4925 0.3094 0.8135
vn -0.5200 0.3316 0.7872
vn -0.5766 0.2983 0.7607
vn 0.4925 0.3094 0.8135
vn 0.5200 0.3316 0.7872
vn 0.5766 0.2983 0.7607
vn 0.8135 0.3094 0.4925
vn 0.7872 0.3316 0.5200
vn 0.7607 0.2983 0.5766
vn 0.8135 0.3094 -0.4925
vn 0.7872 0.3316 -0.5200
vn 0.7607 0.2983 -0.5766
vn 0.4925 0.3094 -0.8135
vn 0.5200 0.3316 -0.7872
vn 0.5766 0.2983 -0.7607
vn 0.2148 -0.9742 -0.0690
vn -0.0690 -0.9742 0.2148
vn -0.0690 -0.9742 -0.2148
vn 0.2148 -0.9742 0.0691
vn -0.2148 -0.9742 0.0690
vn 0.0690 -0.9742 -0.2148
vn 0.0690 -0.9742 0.2148
vn -0.2148 -0.9742 -0.0691
vn -0.2236 -0.9604 0.1661
vn -0.1661 -0.9604 0.2236
vn -0.1661 -0.9604 -0.2236
vn -0.2236 -0.9604 -0.1660
vn 0.2236 -0.9604 -0.1660
vn 0.1661 -0.9604 -0.2236
vn 0.1661 -0.9604 0.2236
vn 0.2236 -0.9604 0.1661
vn -0.1163 -0.9826 0.1448
vn -0.1448 -0.9826 0.1163
vn -0.1448 -0.9826 -0.1163
vn -0.1163 -0.9826 -0.1448
vn 0.1163 -0.9826 -0.1448
vn 0.1448 -0.9826 -0.1163
vn 0.1448 -0.9826 0.1163
vn 0.1163 -0.9826 0.1448
s off
f 121/105/29 44/106/29 122/107/29
f 44/106/30 123/108/30 122/107/30
f 123/108/31 48/109/31 124/110/31
f 48/109/32 125/111/32 124/110/32
f 125/111/33 52/112/33 126/113/33
f 52/112/34 127/114/34 126/113/34
f 54/115/35 50/116/35 46/117/35
f 127/114/36 56/118/36 128/119/36
f 56/118/37 121/105/37 128/119/37
f 47/120/38 51/121/38 55/122/38
f 89/123/39 57/124/39 96/125/39
f 63/126/40 89/123/40 85/127/40
f 81/128/41 63/126/41 85/127/41
f 61/129/42 81/128/42 77/130/42
f 73/131/43 61/129/43 77/130/43
f 59/132/44 73/131/44 69/133/44
f 65/134/45 59/132/45 69/133/45
f 57/124/46 65/134/46 96/125/46
f 41/135/47 68/136/47 43/137/47
f 94/138/48 68/136/48 93/139/48
f 94/138/49 66/140/49 67/141/49
f 96/125/50 66/140/50 95/142/50
f 68/136/51 45/143/51 43/137/51
f 68/136/52 71/144/52 72/145/52
f 66/140/53 71/144/53 67/141/53
f 66/140/54 69/133/54 70/146/54
f 45/143/55 76/147/55 47/120/55
f 71/144/56 76/147/56 72/145/56
f 71/144/57 74/148/57 75/149/57
f 69/133/58 74/148/58 70/146/58
f 76/147/59 49/150/59 47/120/59
f 76/147/60 79/151/60 80/152/60
f 74/148/61 79/151/61 75/149/61
f 74/148/62 77/130/62 78/153/62
f 49/150/63 84/154/63 51/121/63
f 79/151/64 84/154/64 80/152/64
f 79/151/65 82/155/65 83/156/65
f 77/130/66 82/155/66 78/153/66
f 84/154/67 53/157/67 51/121/67
f 84/154/68 87/158/68 88/159/68
f 82/155/69 87/158/69 83/156/69
f 82/155/70 85/127/70 86/160/70
f 53/157/71 92/161/71 55/122/71
f 87/158/72 92/161/72 88/159/72
f 87/158/73 90/162/73 91/163/73
f 85/127/74 90/162/74 86/160/74
f 92/161/75 41/135/75 55/122/75
f 92/161/76 94/138/76 93/139/76
f 90/162/77 94/138/77 91/163/77
f 90/162/78 96/125/78 95/142/78
f 145/164/79 97/165/79 146/166/79
f 119/167/80 137/168/80 144/169/80
f 118/170/81 129/171/81 136/172/81
f 117/173/82 145/164/82 147/174/82
f 143/175/83 119/167/83 144/169/83
f 135/176/84 118/170/84 136/172/84
f 148/177/85 117/173/85 147/174/85
f 113/178/86 143/175/86 142/179/86
f 112/180/87 135/176/87 134/181/87
f 111/182/88 148/177/88 149/183/88
f 141/184/89 113/178/89 142/179/89
f 133/185/90 112/180/90 134/181/90
f 150/186/91 111/182/91 149/183/91
f 107/187/92 141/184/92 140/188/92
f 106/189/93 133/185/93 132/190/93
f 105/191/94 150/186/94 151/192/94
f 139/193/95 107/187/95 140/188/95
f 131/194/96 106/189/96 132/190/96
f 152/195/97 105/191/97 151/192/97
f 101/196/98 139/193/98 138/197/98
f 100/198/99 131/194/99 130/199/99
f 97/165/100 152/195/100 146/166/100
f 137/168/101 101/196/101 138/197/101
f 129/171/102 100/198/102 130/199/102
f 128/119/103 99/200/103 118/170/103
f 115/201/104 128/119/104 118/170/104
f 126/113/105 115/201/105 112/180/105
f 109/202/106 126/113/106 112/180/106
f 124/110/107 109/202/107 106/189/107
f 103/203/108 124/110/108 106/189/108
f 122/107/109 103/203/109 100/198/109
f 99/200/110 122/107/110 100/198/110
f 98/204/111 130/199/111 101/196/111
f 130/199/112 104/205/112 101/196/112
f 104/205/113 132/190/113 107/187/113
f 132/190/114 110/206/114 107/187/114
f 110/206/115 134/181/115 113/178/115
f 134/181/116 116/207/116 113/178/116
f 116/207/117 136/172/117 119/167/117
f 136/172/118 98/204/118 119/167/118
f 97/165/119 138/197/119 102/208/119
f 138/197/120 105/191/120 102/208/120
f 105/191/121 140/188/121 108/209/121
f 140/188/122 111/182/122 108/209/122
f 111/182/123 142/179/123 114/210/123
f 142/179/124 117/173/124 114/210/124
f 117/173/125 144/169/125 120/211/125
f 144/169/126 97/165/126 120/211/126
f 121/105/127 42/212/127 44/106/127
f 44/106/128 46/213/128 123/108/128
f 123/108/129 46/213/129 48/109/129
f 48/109/130 50/214/130 125/111/130
f 125/111/131 50/214/131 52/112/131
f 52/112/132 54/215/132 127/114/132
f 46/117/35 44/216/35 42/217/35
f 42/217/35 56/218/35 54/115/35
f 54/115/35 52/219/35 50/116/35
f 50/116/35 48/220/35 46/117/35
f 46/117/35 42/217/35 54/115/35
f 127/114/133 54/215/133 56/118/133
f 56/118/134 42/212/134 121/105/134
f 55/122/135 41/135/135 43/137/135
f 43/137/136 45/143/136 47/120/136
f 47/120/137 49/150/137 51/121/137
f 51/121/138 53/157/138 55/122/138
f 55/122/38 43/137/38 47/120/38
f 89/123/139 64/221/139 57/124/139
f 63/126/140 64/221/140 89/123/140
f 81/128/141 62/222/141 63/126/141
f 61/129/142 62/222/142 81/128/142
f 73/131/143 60/223/143 61/129/143
f 59/132/144 60/223/144 73/131/144
f 65/134/145 58/224/145 59/132/145
f 57/124/146 58/224/146 65/134/146
f 41/135/147 93/139/147 68/136/147
f 94/138/148 67/141/148 68/136/148
f 94/138/149 95/142/149 66/140/149
f 96/125/150 65/134/150 66/140/150
f 68/136/151 72/145/151 45/143/151
f 68/136/152 67/141/152 71/144/152
f 66/140/153 70/146/153 71/144/153
f 66/140/154 65/134/154 69/133/154
f 45/143/155 72/145/155 76/147/155
f 71/144/156 75/149/156 76/147/156
f 71/144/157 70/146/157 74/148/157
f 69/133/158 73/131/158 74/148/158
f 76/147/159 80/152/159 49/150/159
f 76/147/160 75/149/160 79/151/160
f 74/148/161 78/153/161 79/151/161
f 74/148/162 73/131/162 77/130/162
f 49/150/163 80/152/163 84/154/163
f 79/151/164 83/156/164 84/154/164
f 79/151/165 78/153/165 82/155/165
f 77/130/166 81/128/166 82/155/166
f 84/154/167 88/159/167 53/157/167
f 84/154/168 83/156/168 87/158/168
f 82/155/169 86/160/169 87/158/169
f 82/155/170 81/128/170 85/127/170
f 53/157/171 88/159/171 92/161/171
f 87/158/172 91/163/172 92/161/172
f 87/158/173 86/160/173 90/162/173
f 85/127/174 89/123/174 90/162/174
f 92/161/175 93/139/175 41/135/175
f 92/161/176 91/163/176 94/138/176
f 90/162/177 95/142/177 94/138/177
f 90/162/178 89/123/178 96/125/178
f 145/164/179 120/211/179 97/165/179
f 119/167/180 98/204/180 137/168/180
f 118/170/181 99/200/181 129/171/181
f 117/173/182 120/211/182 145/164/182
f 143/175/183 116/207/183 119/167/183
f 135/176/184 115/201/184 118/170/184
f 148/177/185 114/210/185 117/173/185
f 113/178/186 116/207/186 143/175/186
f 112/180/187 115/201/187 135/176/187
f 111/182/188 114/210/188 148/177/188
f 141/184/189 110/206/189 113/178/189
f 133/185/190 109/202/190 112/180/190
f 150/186/191 108/209/191 111/182/191
f 107/187/192 110/206/192 141/184/192
f 106/189/193 109/202/193 133/185/193
f 105/191/194 108/209/194 150/186/194
f 139/193/195 104/205/195 107/187/195
f 131/194/196 103/203/196 106/189/196
f 152/195/197 102/208/197 105/191/197
f 101/196/198 104/205/198 139/193/198
f 100/198/199 103/203/199 131/194/199
f 97/165/200 102/208/200 152/195/200
f 137/168/201 98/204/201 101/196/201
f 129/171/202 99/200/202 100/198/202
f 128/119/203 121/105/203 99/200/203
f 115/201/204 127/114/204 128/119/204
f 126/113/205 127/114/205 115/201/205
f 109/202/206 125/111/206 126/113/206
f 124/110/207 125/111/207 109/202/207
f 103/203/208 123/108/208 124/110/208
f 122/107/209 123/108/209 103/203/209
f 99/200/210 121/105/210 122/107/210
f 98/204/211 129/171/211 130/199/211
f 130/199/212 131/194/212 104/205/212
f 104/205/213 131/194/213 132/190/213
f 132/190/214 133/185/214 110/206/214
f 110/206/215 133/185/215 134/181/215
f 134/181/216 135/176/216 116/207/216
f 116/207/217 135/176/217 136/172/217
f 136/172/218 129/171/218 98/204/218
f 97/165/219 137/168/219 138/197/219
f 138/197/220 139/193/220 105/191/220
f 105/191/221 139/193/221 140/188/221
f 140/188/222 141/184/222 111/182/222
f 111/182/223 141/184/223 142/179/223
f 142/179/224 143/175/224 117/173/224
f 117/173/225 143/175/225 144/169/225
f 144/169/226 137/168/226 97/165/226
